if (_typeface_js && _typeface_js.loadFace) _typeface_js.loadFace({"glyphs":{"S":{"x_min":28,"x_max":563,"ha":592,"o":"m 563 221 q 490 49 563 113 q 308 -14 418 -14 q 28 247 71 -14 l 165 287 q 308 121 191 121 q 385 150 357 121 q 414 226 414 179 q 321 373 414 297 q 148 512 235 443 q 56 710 56 604 q 124 876 56 813 q 297 940 193 940 q 557 708 497 940 l 419 668 q 297 805 385 805 q 231 777 257 805 q 205 710 205 750 q 297 567 205 643 q 470 428 384 498 q 563 221 563 334 "},"¦":{"x_min":276,"x_max":418,"ha":694,"o":"m 418 454 l 276 454 l 276 926 l 418 926 l 418 454 m 418 -232 l 276 -232 l 276 212 l 418 212 l 418 -232 "},"/":{"x_min":24,"x_max":483.71875,"ha":515,"o":"m 483 926 l 140 -93 l 24 -93 l 367 926 l 483 926 "},"y":{"x_min":14,"x_max":477.890625,"ha":492,"o":"m 477 690 l 327 28 q 284 -122 302 -83 q 176 -229 247 -204 q 34 -246 137 -243 l 34 -112 q 45 -113 39 -112 q 55 -113 52 -113 q 141 -83 108 -113 q 175 0 175 -52 q 165 59 175 19 l 14 690 l 150 690 l 251 218 l 344 690 l 477 690 "},"≈":{"x_min":12,"x_max":681.453125,"ha":694,"o":"m 681 649 q 602 535 642 571 q 473 487 550 487 q 334 529 430 487 q 198 571 238 571 q 82 476 132 571 l 12 522 q 207 692 85 692 q 354 650 260 692 q 489 608 448 608 q 562 632 532 608 q 607 692 581 648 l 681 649 m 681 405 q 603 290 642 326 q 474 240 550 240 q 334 281 430 240 q 198 323 239 323 q 82 229 134 323 l 12 274 q 84 393 48 355 q 207 445 135 445 q 353 403 257 445 q 489 361 449 361 q 562 386 532 361 q 607 448 581 404 l 681 405 "},"Ž":{"x_min":28,"x_max":512.71875,"ha":540,"o":"m 429 1124 l 341 1000 l 197 1000 l 109 1124 l 226 1124 l 269 1076 l 312 1124 l 429 1124 m 512 0 l 28 0 l 28 134 l 351 794 l 59 794 l 59 926 l 509 926 l 509 794 l 186 132 l 512 132 l 512 0 "},"Á":{"x_min":37,"x_max":598.109375,"ha":626,"o":"m 443 1124 l 343 1000 l 246 1000 l 309 1124 l 443 1124 m 598 0 l 450 0 l 412 201 l 213 201 l 177 0 l 37 0 l 214 926 l 410 926 l 598 0 m 387 333 l 310 748 l 237 333 l 387 333 "},"g":{"x_min":32,"x_max":552.84375,"ha":561,"o":"m 552 559 q 508 576 534 576 q 458 550 477 576 q 472 437 472 495 q 263 171 472 171 q 213 176 246 171 q 183 136 183 159 q 277 98 183 102 q 451 74 406 93 q 545 -75 545 37 q 270 -246 545 -246 q 32 -120 32 -246 q 140 -6 32 -44 q 59 83 59 26 q 166 190 59 158 q 51 434 51 252 q 263 699 51 699 q 431 611 373 699 q 474 680 448 662 q 552 699 500 699 l 552 559 m 340 397 l 340 473 q 260 586 340 586 q 183 473 183 586 l 183 397 q 260 285 183 285 q 340 397 340 285 m 423 -77 q 380 -33 423 -43 q 309 -26 362 -27 l 266 -24 q 198 -19 244 -23 q 163 -79 163 -45 q 291 -136 163 -136 q 423 -77 423 -136 "},"²":{"x_min":35,"x_max":346,"ha":385,"o":"m 346 784 q 284 621 346 710 q 173 482 273 605 l 148 452 l 333 452 l 333 369 l 35 369 l 35 449 q 144 581 130 565 q 237 724 219 677 q 247 784 247 751 q 194 850 247 850 q 136 756 136 850 l 40 756 l 40 780 q 197 935 40 935 q 306 894 266 935 q 346 784 346 854 "},"–":{"x_min":46,"x_max":648.78125,"ha":694,"o":"m 648 407 l 46 407 l 46 524 l 648 524 l 648 407 "},"ë":{"x_min":55,"x_max":484.15625,"ha":540,"o":"m 437 802 l 316 802 l 316 926 l 437 926 l 437 802 m 223 802 l 103 802 l 103 926 l 223 926 l 223 802 m 484 213 q 436 48 484 99 q 271 -14 379 -14 q 99 56 150 -14 q 55 244 55 117 l 55 451 q 61 555 55 522 q 110 647 74 610 q 267 704 168 704 q 429 640 370 704 q 482 438 482 584 l 482 324 l 184 324 l 184 261 q 193 158 184 186 q 272 104 213 104 q 343 148 325 104 q 354 238 354 176 l 484 238 l 484 213 m 353 438 l 353 475 q 267 590 353 590 q 184 475 184 590 l 184 438 l 353 438 "},"ƒ":{"x_min":55,"x_max":546.65625,"ha":569,"o":"m 546 1018 l 523 897 q 468 910 491 910 q 389 821 406 910 l 359 660 l 484 660 l 467 574 l 342 574 l 184 -236 l 55 -236 l 213 574 l 100 574 l 117 660 l 228 660 l 266 848 q 291 936 278 908 q 354 1003 311 979 q 463 1028 396 1028 q 546 1018 507 1028 "},"Î":{"x_min":-1,"x_max":286.5,"ha":285,"o":"m 286 1000 l 180 1000 l 142 1047 l 103 1000 l -1 1000 l 76 1124 l 207 1124 l 286 1000 m 214 0 l 71 0 l 71 926 l 214 926 l 214 0 "},"e":{"x_min":55,"x_max":484.15625,"ha":540,"o":"m 484 213 q 436 48 484 99 q 271 -14 379 -14 q 99 56 150 -14 q 55 244 55 117 l 55 451 q 61 555 55 522 q 110 647 74 610 q 267 704 168 704 q 429 640 370 704 q 482 438 482 584 l 482 324 l 184 324 l 184 261 q 193 158 184 186 q 272 104 213 104 q 343 148 325 104 q 354 238 354 176 l 484 238 l 484 213 m 353 438 l 353 475 q 267 590 353 590 q 184 475 184 590 l 184 438 l 353 438 "},"Ã":{"x_min":37,"x_max":598.109375,"ha":626,"o":"m 451 1024 q 382 1000 410 1000 q 318 1014 360 1000 q 253 1028 277 1028 q 173 1006 210 1028 l 173 1103 q 253 1124 210 1124 q 319 1110 277 1124 q 384 1097 362 1097 q 451 1124 410 1097 l 451 1024 m 598 0 l 450 0 l 412 201 l 213 201 l 177 0 l 37 0 l 214 926 l 410 926 l 598 0 m 387 333 l 310 748 l 237 333 l 387 333 "},"J":{"x_min":19,"x_max":290,"ha":360,"o":"m 290 226 q 258 59 290 108 q 105 0 217 0 l 19 0 l 19 135 q 115 148 92 135 q 147 236 147 166 l 147 926 l 290 926 l 290 226 "},"»":{"x_min":46,"x_max":384,"ha":429,"o":"m 384 247 l 241 129 l 241 295 l 294 347 l 241 398 l 241 565 l 384 446 l 384 247 m 189 247 l 46 129 l 46 295 l 100 347 l 46 398 l 46 565 l 189 446 l 189 247 "},"∆":{"x_min":33,"x_max":892.734375,"ha":926,"o":"m 892 0 l 33 0 l 392 926 l 527 926 l 892 0 m 710 114 l 460 773 l 212 114 l 710 114 "},"‐":{"x_min":0,"x_max":199,"ha":199,"o":"m 199 294 l 0 294 l 0 410 l 199 410 l 199 294 "},"©":{"x_min":37,"x_max":990,"ha":1028,"o":"m 990 462 q 850 125 990 265 q 513 -14 710 -14 q 176 125 316 -14 q 37 462 37 265 q 176 800 37 660 q 513 940 316 940 q 850 800 710 940 q 990 462 990 660 m 912 462 q 796 753 912 631 q 513 875 681 875 q 230 752 346 875 q 115 462 115 630 q 230 172 115 294 q 513 50 346 50 q 796 172 680 50 q 912 462 912 294 m 681 362 q 520 176 681 176 q 388 238 431 176 q 361 387 361 278 l 361 543 q 374 662 361 629 q 520 749 410 749 q 639 703 597 749 q 681 577 681 657 l 681 559 l 589 559 q 520 668 589 668 q 462 633 477 668 q 453 561 453 611 l 453 376 q 462 297 453 320 q 520 257 477 257 q 589 380 589 257 l 681 380 l 681 362 "},"˘":{"x_min":187,"x_max":506.4375,"ha":694,"o":"m 506 876 q 346 807 455 807 q 187 876 239 807 l 270 922 q 346 899 313 899 q 423 922 380 899 l 506 876 "},"≥":{"x_min":46,"x_max":648.78125,"ha":694,"o":"m 648 483 l 46 205 l 46 323 l 515 537 l 47 749 l 46 868 l 648 590 l 648 483 m 648 53 l 46 53 l 46 166 l 648 166 l 648 53 "},"ò":{"x_min":55,"x_max":479,"ha":535,"o":"m 314 802 l 217 802 l 117 926 l 250 926 l 314 802 m 479 237 q 423 41 479 97 q 266 -14 367 -14 q 109 41 169 -14 q 55 237 55 91 l 55 451 q 109 647 55 591 q 266 704 164 704 q 422 648 365 704 q 479 451 479 592 l 479 237 m 350 230 l 350 459 q 266 586 350 586 q 184 459 184 586 l 184 230 q 266 104 184 104 q 350 230 350 104 "},"^":{"x_min":26,"x_max":667.671875,"ha":694,"o":"m 667 494 l 534 494 l 346 830 l 159 494 l 26 494 l 264 929 l 428 929 l 667 494 "},"«":{"x_min":46,"x_max":384,"ha":429,"o":"m 384 129 l 241 247 l 241 446 l 384 565 l 384 398 l 330 347 l 384 295 l 384 129 m 189 129 l 46 247 l 46 446 l 189 565 l 189 398 l 136 347 l 189 295 l 189 129 "},"D":{"x_min":71,"x_max":564,"ha":625,"o":"m 564 288 q 297 0 564 0 l 71 0 l 71 926 l 297 926 q 564 635 564 926 l 564 288 m 421 329 l 421 596 q 398 734 421 692 q 283 794 368 794 l 214 794 l 214 132 l 283 132 q 400 191 369 132 q 421 329 421 231 "},"∙":{"x_min":0,"x_max":150,"ha":150,"o":"m 150 399 l 0 399 l 0 564 l 150 564 l 150 399 "},"ł":{"x_min":28,"x_max":282.15625,"ha":303,"o":"m 282 540 l 220 493 l 220 0 l 91 0 l 91 406 l 28 359 l 28 490 l 91 538 l 91 926 l 220 926 l 220 623 l 282 672 l 282 540 "},"ÿ":{"x_min":14,"x_max":477.890625,"ha":492,"o":"m 413 802 l 292 802 l 292 926 l 413 926 l 413 802 m 200 802 l 79 802 l 79 926 l 200 926 l 200 802 m 477 690 l 327 28 q 284 -122 302 -83 q 176 -229 247 -204 q 34 -246 137 -243 l 34 -112 q 45 -113 39 -112 q 55 -113 52 -113 q 141 -83 108 -113 q 175 0 175 -52 q 165 59 175 19 l 14 690 l 150 690 l 251 218 l 344 690 l 477 690 "},"Ł":{"x_min":5,"x_max":470.265625,"ha":489,"o":"m 470 0 l 43 0 l 43 387 l 5 359 l 5 499 l 43 527 l 43 926 l 186 926 l 186 619 l 286 699 l 286 558 l 186 479 l 186 132 l 470 132 l 470 0 "},"í":{"x_min":59,"x_max":256.609375,"ha":250,"o":"m 256 926 l 155 802 l 59 802 l 122 926 l 256 926 m 190 0 l 59 0 l 59 690 l 190 690 l 190 0 "},"ˆ":{"x_min":187,"x_max":506.4375,"ha":694,"o":"m 506 803 l 389 803 l 346 850 l 303 803 l 187 803 l 274 926 l 418 926 l 506 803 "},"w":{"x_min":18,"x_max":731.890625,"ha":750,"o":"m 731 690 l 587 0 l 463 0 l 374 423 l 288 0 l 166 0 l 18 690 l 149 690 l 233 259 l 318 690 l 436 690 l 524 259 l 601 690 l 731 690 "},"$":{"x_min":38,"x_max":527,"ha":569,"o":"m 527 232 q 474 65 527 130 q 321 -12 421 0 l 321 -118 l 246 -118 l 246 -11 q 38 120 130 4 l 135 209 q 201 141 175 161 q 290 114 240 114 q 363 144 338 114 q 388 223 388 175 q 300 371 388 301 q 138 497 220 433 q 51 697 51 582 q 102 857 51 790 q 246 937 154 923 l 246 1024 l 321 1024 l 321 937 q 508 834 429 922 l 413 741 q 287 813 359 813 q 213 783 240 813 q 186 707 186 754 q 222 612 186 653 q 334 528 237 594 q 471 407 431 461 q 527 232 527 333 "},"∫":{"x_min":111,"x_max":583.21875,"ha":694,"o":"m 583 1026 l 556 915 q 490 931 517 931 q 416 876 431 931 q 411 775 411 855 l 411 -38 q 409 -161 411 -140 q 376 -273 402 -236 q 204 -346 324 -346 q 111 -332 156 -346 l 135 -220 q 203 -236 174 -236 q 278 -173 264 -236 q 283 -62 283 -155 l 283 769 q 295 925 283 885 q 477 1042 331 1042 q 583 1026 519 1042 "},"\\":{"x_min":37,"x_max":632.828125,"ha":694,"o":"m 632 -115 l 510 -115 l 37 1042 l 159 1042 l 632 -115 "},"Ì":{"x_min":2,"x_max":215,"ha":285,"o":"m 200 1000 l 102 1000 l 2 1124 l 136 1124 l 200 1000 m 215 0 l 72 0 l 72 926 l 215 926 l 215 0 "},"µ":{"x_min":56,"x_max":638,"ha":694,"o":"m 638 0 l 514 0 l 514 106 q 461 27 487 49 q 341 -17 411 -17 q 181 80 242 -17 l 181 -235 l 56 -235 l 56 665 l 181 665 l 181 296 q 205 158 181 199 q 344 83 250 83 q 482 160 433 83 q 514 306 514 212 l 514 665 l 638 665 l 638 0 "},"Ç":{"x_min":61,"x_max":566.5625,"ha":617,"o":"m 566 294 q 312 -14 566 -14 q 105 88 172 -14 q 65 209 74 135 q 61 337 61 247 l 61 597 q 66 731 61 694 q 115 853 77 802 q 310 940 178 940 q 502 856 435 940 q 562 652 562 781 l 562 625 l 419 625 q 310 805 419 805 q 219 743 242 805 q 204 626 204 706 l 204 318 q 217 190 204 230 q 312 121 241 121 q 408 193 383 121 q 423 325 423 236 l 566 325 l 566 294 m 369 -158 l 339 -236 l 273 -236 l 298 -158 l 258 -158 l 258 -65 l 369 -65 l 369 -158 "},"’":{"x_min":55,"x_max":190,"ha":246,"o":"m 190 777 l 107 586 l 55 586 l 116 777 l 55 777 l 55 926 l 190 926 l 190 777 "},"-":{"x_min":0,"x_max":199,"ha":199,"o":"m 199 294 l 0 294 l 0 410 l 199 410 l 199 294 "},"Q":{"x_min":61,"x_max":608.21875,"ha":628,"o":"m 608 -68 q 433 9 487 -68 q 311 -14 376 -14 q 113 74 180 -14 q 61 294 61 144 l 61 631 q 113 849 61 776 q 314 940 177 940 q 514 849 446 940 q 567 631 567 778 l 567 294 q 531 104 567 169 q 608 65 554 69 l 608 -68 m 424 297 l 424 628 q 405 755 424 721 q 314 805 379 805 q 219 746 242 805 q 204 628 204 712 l 204 297 q 219 179 204 213 q 314 121 242 121 q 408 179 385 121 q 424 297 424 213 "},"M":{"x_min":71,"x_max":745,"ha":815,"o":"m 745 0 l 609 0 l 609 680 l 446 0 l 366 0 l 207 680 l 207 0 l 71 0 l 71 926 l 280 926 l 408 344 l 537 926 l 745 926 l 745 0 "},"C":{"x_min":61,"x_max":566.5625,"ha":617,"o":"m 566 294 q 312 -14 566 -14 q 105 88 172 -14 q 65 209 74 135 q 61 337 61 247 l 61 597 q 66 731 61 694 q 115 853 77 802 q 310 940 178 940 q 502 856 435 940 q 562 652 562 781 l 562 625 l 419 625 q 310 805 419 805 q 219 743 242 805 q 204 626 204 706 l 204 318 q 217 190 204 230 q 312 121 241 121 q 408 193 383 121 q 423 325 423 236 l 566 325 l 566 294 "},"œ":{"x_min":55,"x_max":779,"ha":835,"o":"m 779 213 q 730 48 779 101 q 566 -14 673 -14 q 414 33 471 -14 q 266 -14 356 -14 q 109 41 167 -14 q 61 133 73 74 q 55 237 55 166 l 55 451 q 61 555 55 522 q 109 647 73 610 q 266 704 165 704 q 415 656 358 704 q 563 704 474 704 q 726 640 666 704 q 779 438 779 583 l 779 324 l 478 324 l 478 278 q 486 165 478 193 q 566 104 503 104 q 650 220 650 104 q 650 238 650 233 l 779 238 l 779 213 m 650 438 l 650 475 q 563 590 650 590 q 478 475 478 590 l 478 438 l 650 438 m 349 230 l 349 459 q 265 586 349 586 q 184 459 184 586 l 184 230 q 265 104 184 104 q 349 230 349 104 "},"!":{"x_min":74,"x_max":226.78125,"ha":301,"o":"m 226 926 l 193 279 l 107 279 l 74 926 l 226 926 m 218 0 l 83 0 l 83 149 l 218 149 l 218 0 "},"ç":{"x_min":55,"x_max":484.15625,"ha":524,"o":"m 484 219 q 436 49 484 102 q 271 -14 379 -14 q 98 58 155 -14 q 55 244 55 112 l 55 444 q 98 631 55 573 q 273 704 150 704 q 436 641 378 704 q 484 451 484 591 l 354 451 q 343 541 354 515 q 271 586 325 586 q 193 531 211 586 q 184 427 184 501 l 184 260 q 193 158 184 187 q 271 104 211 104 q 343 151 325 104 q 354 244 354 179 l 484 244 l 484 219 m 326 -158 l 295 -236 l 230 -236 l 253 -158 l 215 -158 l 215 -65 l 326 -65 l 326 -158 "},"È":{"x_min":71,"x_max":490.453125,"ha":518,"o":"m 334 1000 l 237 1000 l 137 1124 l 272 1124 l 334 1000 m 490 0 l 71 0 l 71 926 l 490 926 l 490 794 l 214 794 l 214 550 l 418 550 l 418 418 l 214 418 l 214 132 l 490 132 l 490 0 "},"{":{"x_min":190,"x_max":527.5,"ha":694,"o":"m 527 -263 q 506 -264 520 -263 q 484 -264 492 -264 q 320 -222 367 -264 q 269 -61 269 -176 l 269 163 q 190 290 269 270 l 190 392 q 269 510 269 412 l 269 746 q 317 895 269 851 q 470 940 366 940 q 527 938 508 940 l 527 830 q 424 813 448 830 q 393 717 393 792 l 393 502 q 380 406 393 436 q 309 336 362 367 q 379 265 360 306 q 393 168 393 232 l 393 -39 q 423 -138 393 -116 q 527 -155 448 -155 l 527 -263 "},"X":{"x_min":19,"x_max":606.5,"ha":625,"o":"m 606 0 l 448 0 l 307 336 l 175 0 l 19 0 l 225 483 l 27 926 l 185 926 l 309 629 l 424 926 l 581 926 l 391 483 l 606 0 "},"ô":{"x_min":55,"x_max":479,"ha":535,"o":"m 427 802 l 310 802 l 266 850 l 223 802 l 106 802 l 193 926 l 339 926 l 427 802 m 479 237 q 423 41 479 97 q 266 -14 367 -14 q 109 41 169 -14 q 55 237 55 91 l 55 451 q 109 647 55 591 q 266 704 164 704 q 422 648 365 704 q 479 451 479 592 l 479 237 m 350 230 l 350 459 q 266 586 350 586 q 184 459 184 586 l 184 230 q 266 104 184 104 q 350 230 350 104 "},"¼":{"x_min":78,"x_max":914.109375,"ha":935,"o":"m 914 139 l 847 139 l 847 0 l 751 0 l 751 139 l 568 139 l 568 230 l 745 555 l 847 555 l 847 220 l 914 220 l 914 139 m 680 972 l 326 -46 l 254 -46 l 601 972 l 680 972 m 260 370 l 164 370 l 164 788 l 78 788 l 78 847 q 201 926 166 881 l 260 926 l 260 370 m 754 220 l 754 420 l 654 220 l 754 220 "},"#":{"x_min":34,"x_max":813.171875,"ha":833,"o":"m 813 668 l 795 554 l 647 554 l 622 390 l 771 390 l 754 276 l 604 276 l 561 0 l 434 0 l 477 276 l 311 276 l 267 0 l 140 0 l 184 276 l 34 276 l 50 390 l 202 390 l 227 554 l 77 554 l 93 668 l 243 668 l 284 926 l 411 926 l 371 668 l 536 668 l 577 926 l 706 926 l 665 668 l 813 668 m 520 554 l 353 554 l 328 390 l 495 390 l 520 554 "},"Ê":{"x_min":71,"x_max":490.453125,"ha":518,"o":"m 437 1000 l 321 1000 l 277 1047 l 234 1000 l 118 1000 l 205 1124 l 350 1124 l 437 1000 m 490 0 l 71 0 l 71 926 l 490 926 l 490 794 l 214 794 l 214 550 l 418 550 l 418 418 l 214 418 l 214 132 l 490 132 l 490 0 "},")":{"x_min":42,"x_max":324,"ha":369,"o":"m 324 400 q 122 -169 324 98 l 42 -113 q 193 400 193 123 q 42 913 193 676 l 122 969 q 324 400 324 701 "},"Å":{"x_min":37,"x_max":598.109375,"ha":626,"o":"m 418 1079 q 387 1010 418 1038 q 314 982 356 982 q 242 1009 272 982 q 213 1079 213 1037 q 243 1147 213 1119 q 314 1175 274 1175 q 387 1147 356 1175 q 418 1079 418 1119 m 598 0 l 450 0 l 412 201 l 213 201 l 177 0 l 37 0 l 214 926 l 410 926 l 598 0 m 367 1078 q 351 1112 367 1099 q 314 1126 335 1126 q 278 1112 293 1126 q 264 1078 264 1099 q 278 1043 264 1058 q 314 1029 293 1029 q 351 1043 335 1029 q 367 1078 367 1058 m 387 333 l 310 748 l 237 333 l 387 333 "},"Δ":{"x_min":33,"x_max":892.734375,"ha":926,"o":"m 892 0 l 33 0 l 392 926 l 527 926 l 892 0 m 710 114 l 460 773 l 212 114 l 710 114 "},"ø":{"x_min":55,"x_max":479,"ha":535,"o":"m 479 237 q 472 133 479 166 q 423 41 459 77 q 267 -14 366 -14 q 181 -1 225 -14 l 163 -56 l 98 -56 l 125 27 q 64 121 78 66 q 55 237 55 157 l 55 451 q 61 555 55 523 q 109 647 73 610 q 270 704 166 704 q 349 692 310 704 l 366 746 l 431 746 l 405 664 q 469 569 453 625 q 479 451 479 533 l 479 237 m 309 573 q 267 586 286 586 q 184 459 184 586 l 184 202 l 309 573 m 350 230 l 350 498 l 221 117 q 266 104 241 104 q 350 230 350 104 "},"â":{"x_min":52,"x_max":492.28125,"ha":550,"o":"m 445 802 l 328 802 l 283 850 l 240 802 l 124 802 l 211 926 l 357 926 l 445 802 m 492 0 l 358 0 q 347 80 347 30 q 190 -10 265 -10 q 82 48 118 -10 q 52 173 52 96 q 111 324 52 269 q 224 397 152 362 q 348 451 236 404 l 348 487 q 279 586 348 586 q 203 487 209 586 l 65 487 q 297 699 82 699 q 439 646 390 699 q 477 494 477 605 l 477 187 q 492 0 477 55 m 348 166 l 348 355 q 188 181 188 270 q 204 129 188 149 q 253 104 222 104 q 348 166 309 104 "},"}":{"x_min":186,"x_max":523.5,"ha":694,"o":"m 523 283 q 446 165 446 263 l 446 -70 q 397 -219 446 -175 q 243 -264 348 -264 q 186 -262 205 -264 l 186 -154 q 290 -137 266 -154 q 321 -41 321 -116 l 321 173 q 335 265 321 225 q 405 338 350 306 q 337 408 355 369 q 321 505 321 442 l 321 715 q 286 816 321 797 q 186 830 261 830 l 186 938 q 208 940 194 938 q 230 940 223 940 q 395 896 345 940 q 446 737 446 852 l 446 512 q 458 433 446 459 q 523 385 476 397 l 523 283 "},"‰":{"x_min":41,"x_max":1027,"ha":1069,"o":"m 1027 152 q 899 -10 1027 -10 q 772 152 772 -10 l 772 325 q 899 487 772 487 q 1027 325 1027 487 l 1027 152 m 297 601 q 169 438 297 438 q 41 601 41 438 l 41 773 q 169 935 41 935 q 297 773 297 935 l 297 601 m 602 926 l 218 0 l 142 0 l 525 926 l 602 926 m 704 152 q 576 -10 704 -10 q 448 152 448 -10 l 448 325 q 576 487 448 487 q 704 325 704 487 l 704 152 m 945 137 l 945 339 q 899 413 945 413 q 855 339 855 413 l 855 137 q 899 65 855 65 q 945 137 945 65 m 215 586 l 215 787 q 168 861 215 861 q 124 787 124 861 l 124 586 q 168 513 124 513 q 215 586 215 513 m 621 137 l 621 339 q 576 413 621 413 q 530 339 530 413 l 530 137 q 576 65 530 65 q 621 137 621 65 "},"Ä":{"x_min":37,"x_max":598.109375,"ha":626,"o":"m 479 1000 l 360 1000 l 360 1124 l 479 1124 l 479 1000 m 266 1000 l 145 1000 l 145 1124 l 266 1124 l 266 1000 m 598 0 l 450 0 l 412 201 l 213 201 l 177 0 l 37 0 l 214 926 l 410 926 l 598 0 m 387 333 l 310 748 l 237 333 l 387 333 "},"⋲":{"x_min":12,"x_max":681.453125,"ha":694,"o":"m 681 649 q 602 535 642 571 q 473 487 550 487 q 334 529 430 487 q 198 571 238 571 q 82 476 132 571 l 12 522 q 207 692 85 692 q 354 650 260 692 q 489 608 448 608 q 562 632 532 608 q 607 692 581 648 l 681 649 m 681 405 q 603 290 642 326 q 474 240 550 240 q 334 281 430 240 q 198 323 239 323 q 82 229 134 323 l 12 274 q 84 393 48 355 q 207 445 135 445 q 353 403 257 445 q 489 361 449 361 q 562 386 532 361 q 607 448 581 404 l 681 405 "},"¸":{"x_min":291,"x_max":402,"ha":694,"o":"m 402 -158 l 371 -236 l 306 -236 l 329 -158 l 291 -158 l 291 -65 l 402 -65 l 402 -158 "},"a":{"x_min":52,"x_max":492.28125,"ha":550,"o":"m 492 0 l 358 0 q 347 80 347 30 q 190 -10 265 -10 q 82 48 118 -10 q 52 173 52 96 q 111 324 52 269 q 224 397 152 362 q 348 451 236 404 l 348 487 q 279 586 348 586 q 203 487 209 586 l 65 487 q 297 699 82 699 q 439 646 390 699 q 477 494 477 605 l 477 187 q 492 0 477 55 m 348 166 l 348 355 q 188 181 188 270 q 204 129 188 149 q 253 104 222 104 q 348 166 309 104 "},"—":{"x_min":0,"x_max":698.609375,"ha":699,"o":"m 698 294 l 0 294 l 0 410 l 698 410 l 698 294 "},"=":{"x_min":46,"x_max":648.78125,"ha":694,"o":"m 648 529 l 46 529 l 46 639 l 648 639 l 648 529 m 648 308 l 46 308 l 46 418 l 648 418 l 648 308 "},"N":{"x_min":71,"x_max":584,"ha":654,"o":"m 584 0 l 456 0 l 207 616 l 207 0 l 71 0 l 71 926 l 215 926 l 448 350 l 448 926 l 584 926 l 584 0 "},"˚":{"x_min":246,"x_max":449,"ha":694,"o":"m 449 864 q 419 794 449 822 q 347 767 389 767 q 275 794 305 767 q 246 864 246 822 q 276 932 246 904 q 347 960 307 960 q 418 932 387 960 q 449 864 449 904 m 399 864 q 383 899 399 885 q 347 913 368 913 q 311 899 326 913 q 296 864 296 885 q 311 829 296 843 q 347 816 326 816 q 383 829 368 816 q 399 864 399 843 "},"ú":{"x_min":60,"x_max":474,"ha":535,"o":"m 408 926 l 307 802 l 210 802 l 273 926 l 408 926 m 474 0 l 345 0 l 345 88 q 174 -10 261 -10 q 60 149 60 -10 l 60 690 l 191 690 l 191 184 q 239 104 191 104 q 345 173 296 104 l 345 690 l 474 690 l 474 0 "},"⁄":{"x_min":-129,"x_max":296,"ha":167,"o":"m 296 972 l -56 -46 l -129 -46 l 216 972 l 296 972 "},"2":{"x_min":47,"x_max":516,"ha":569,"o":"m 516 694 q 467 501 516 598 q 357 331 434 434 l 202 125 l 497 125 l 497 0 l 47 0 l 47 124 q 191 313 180 298 q 322 509 274 426 q 377 695 377 602 q 286 812 377 812 q 189 656 189 812 l 55 656 l 55 684 q 115 871 55 802 q 291 940 174 940 q 460 870 399 940 q 516 694 516 805 "},"ü":{"x_min":60,"x_max":474,"ha":535,"o":"m 433 802 l 314 802 l 314 926 l 433 926 l 433 802 m 221 802 l 100 802 l 100 926 l 221 926 l 221 802 m 474 0 l 345 0 l 345 88 q 174 -10 261 -10 q 60 149 60 -10 l 60 690 l 191 690 l 191 184 q 239 104 191 104 q 345 173 296 104 l 345 690 l 474 690 l 474 0 "},"¯":{"x_min":205,"x_max":488,"ha":694,"o":"m 488 818 l 205 818 l 205 911 l 488 911 l 488 818 "},"Z":{"x_min":28,"x_max":512.71875,"ha":540,"o":"m 512 0 l 28 0 l 28 134 l 351 794 l 59 794 l 59 926 l 509 926 l 509 794 l 186 132 l 512 132 l 512 0 "},"u":{"x_min":60,"x_max":474,"ha":535,"o":"m 474 0 l 345 0 l 345 88 q 174 -10 261 -10 q 60 149 60 -10 l 60 690 l 191 690 l 191 184 q 239 104 191 104 q 345 173 296 104 l 345 690 l 474 690 l 474 0 "},"":{"x_min":9,"x_max":516,"ha":576,"o":"m 516 0 l 387 0 l 387 807 q 292 817 334 817 q 235 772 245 817 q 233 690 233 759 l 329 690 l 329 573 l 233 573 l 233 0 l 102 0 l 102 573 l 9 573 l 9 690 l 102 690 q 117 862 102 825 q 261 935 147 935 q 324 930 282 935 q 387 926 366 926 l 516 926 l 516 0 "},"˜":{"x_min":208,"x_max":486,"ha":694,"o":"m 486 827 q 417 803 441 803 q 353 816 395 803 q 288 830 312 830 q 208 809 245 830 l 208 905 q 288 926 245 926 q 353 913 312 926 q 417 900 395 900 q 486 926 445 900 l 486 827 "},"Ó":{"x_min":61,"x_max":567,"ha":628,"o":"m 454 1124 l 354 1000 l 256 1000 l 319 1124 l 454 1124 m 567 294 q 514 74 567 148 q 314 -14 450 -14 q 113 74 181 -14 q 61 294 61 144 l 61 631 q 113 849 61 774 q 314 940 177 940 q 514 849 446 940 q 567 631 567 778 l 567 294 m 424 297 l 424 628 q 405 755 424 721 q 314 805 379 805 q 219 746 242 805 q 204 628 204 712 l 204 297 q 219 179 204 213 q 314 121 242 121 q 408 179 385 121 q 424 297 424 213 "},"k":{"x_min":59,"x_max":504.84375,"ha":519,"o":"m 504 0 l 359 0 l 263 322 l 190 205 l 190 0 l 59 0 l 59 926 l 190 926 l 190 413 l 345 690 l 492 690 l 352 465 l 504 0 "},"ˇ":{"x_min":187,"x_max":506.4375,"ha":694,"o":"m 506 926 l 418 803 l 274 803 l 187 926 l 303 926 l 346 879 l 389 926 l 506 926 "},"Ù":{"x_min":71,"x_max":560,"ha":631,"o":"m 372 1000 l 275 1000 l 175 1124 l 309 1124 l 372 1000 m 560 298 q 507 69 560 140 q 315 -14 444 -14 q 123 69 189 -14 q 71 298 71 135 l 71 926 l 214 926 l 214 275 q 315 121 214 121 q 417 275 417 121 l 417 926 l 560 926 l 560 298 "},"Ÿ":{"x_min":23,"x_max":588.28125,"ha":611,"o":"m 471 1000 l 350 1000 l 350 1124 l 471 1124 l 471 1000 m 259 1000 l 138 1000 l 138 1124 l 259 1124 l 259 1000 m 588 926 l 374 360 l 374 0 l 230 0 l 230 360 l 23 926 l 179 926 l 303 534 l 432 926 l 588 926 "},"¢":{"x_min":69,"x_max":500,"ha":569,"o":"m 500 337 q 462 180 500 234 q 323 106 420 119 l 323 -43 l 248 -43 l 248 106 q 102 191 143 120 q 69 362 69 249 l 69 562 q 102 734 69 676 q 248 819 143 808 l 248 958 l 323 958 l 323 819 q 467 738 427 808 q 500 569 500 683 l 369 569 q 357 659 369 633 q 285 704 339 704 q 209 648 227 704 q 200 545 200 619 l 200 378 q 209 276 200 305 q 287 222 227 222 q 357 269 339 222 q 369 362 369 297 l 500 362 l 500 337 "},"Ω":{"x_min":39,"x_max":886,"ha":925,"o":"m 886 0 l 520 0 l 520 101 q 695 260 633 158 q 757 490 757 362 q 679 726 757 624 q 464 836 594 836 q 246 727 328 836 q 170 488 170 629 q 405 101 170 231 l 405 0 l 39 0 l 39 113 l 270 113 q 39 506 39 251 q 159 819 39 690 q 462 949 279 949 q 767 818 645 949 q 886 506 886 690 q 655 113 886 251 l 886 113 l 886 0 "},"ß":{"x_min":59,"x_max":479.84375,"ha":536,"o":"m 479 347 q 457 113 479 187 q 295 -3 422 -3 q 257 0 282 -3 l 257 125 q 274 125 263 125 q 315 140 302 125 q 343 340 343 172 q 299 548 343 518 q 228 565 274 565 l 228 690 q 305 755 305 690 q 249 817 305 817 q 190 711 190 817 l 190 -3 l 59 -3 l 59 681 q 106 869 59 812 q 253 935 160 935 q 383 884 332 935 q 434 755 434 834 q 367 629 434 675 q 449 568 424 609 q 475 465 468 533 q 479 347 479 425 "},"é":{"x_min":55,"x_max":484.15625,"ha":540,"o":"m 410 926 l 310 802 l 213 802 l 275 926 l 410 926 m 484 213 q 436 48 484 99 q 271 -14 379 -14 q 99 56 150 -14 q 55 244 55 117 l 55 451 q 61 555 55 522 q 110 647 74 610 q 267 704 168 704 q 429 640 370 704 q 482 438 482 584 l 482 324 l 184 324 l 184 261 q 193 158 184 186 q 272 104 213 104 q 343 148 325 104 q 354 238 354 176 l 484 238 l 484 213 m 353 438 l 353 475 q 267 590 353 590 q 184 475 184 590 l 184 438 l 353 438 "},"s":{"x_min":28,"x_max":477,"ha":503,"o":"m 477 190 q 417 41 477 97 q 264 -14 358 -14 q 28 179 91 -14 l 148 222 q 264 104 186 104 q 316 123 294 104 q 338 173 338 142 q 260 267 338 222 q 116 355 128 345 q 39 510 39 419 q 96 649 39 595 q 240 704 154 704 q 464 537 400 704 l 346 486 q 239 586 307 586 q 191 569 211 586 q 171 524 171 552 q 214 458 171 490 q 287 415 225 449 q 361 372 342 384 q 428 320 403 345 q 477 190 477 270 "},"B":{"x_min":71,"x_max":577.953125,"ha":633,"o":"m 577 262 q 503 68 577 137 q 302 0 429 0 l 71 0 l 71 926 l 285 926 q 478 870 407 926 q 556 689 556 809 q 402 484 556 531 q 512 431 477 462 q 577 262 577 373 m 410 679 q 268 794 410 794 l 214 794 l 214 549 l 265 549 q 368 583 327 549 q 410 679 410 618 m 429 262 q 383 375 429 333 q 265 417 337 417 l 214 417 l 214 132 l 286 132 q 429 262 429 132 "},"…":{"x_min":53,"x_max":670,"ha":722,"o":"m 670 0 l 535 0 l 535 149 l 670 149 l 670 0 m 428 0 l 295 0 l 295 149 l 428 149 l 428 0 m 188 0 l 53 0 l 53 149 l 188 149 l 188 0 "},"?":{"x_min":29,"x_max":457,"ha":493,"o":"m 457 755 q 388 584 457 687 q 317 459 331 498 q 301 318 301 411 l 301 281 l 184 281 q 181 362 181 334 q 208 515 181 445 q 277 654 223 555 q 317 757 317 723 q 255 817 317 817 q 158 706 194 817 l 29 744 q 262 935 88 935 q 402 887 347 935 q 457 755 457 839 m 312 0 l 177 0 l 177 149 l 312 149 l 312 0 "},"H":{"x_min":71,"x_max":561,"ha":631,"o":"m 561 0 l 417 0 l 417 408 l 214 408 l 214 0 l 71 0 l 71 926 l 214 926 l 214 540 l 417 540 l 417 926 l 561 926 l 561 0 "},"î":{"x_min":-4,"x_max":254.34375,"ha":250,"o":"m 254 802 l 159 802 l 125 850 l 90 802 l -4 802 l 66 926 l 183 926 l 254 802 m 191 0 l 60 0 l 60 690 l 191 690 l 191 0 "},"c":{"x_min":55,"x_max":484.15625,"ha":524,"o":"m 484 219 q 436 49 484 102 q 271 -14 379 -14 q 98 58 155 -14 q 55 244 55 112 l 55 444 q 98 631 55 573 q 273 704 150 704 q 436 641 378 704 q 484 451 484 591 l 354 451 q 343 541 354 515 q 271 586 325 586 q 193 531 211 586 q 184 427 184 501 l 184 260 q 193 158 184 187 q 271 104 211 104 q 343 151 325 104 q 354 244 354 179 l 484 244 l 484 219 "},"¶":{"x_min":55,"x_max":528.609375,"ha":581,"o":"m 528 884 l 473 884 l 473 -139 l 406 -139 l 406 884 l 330 884 l 330 -139 l 261 -139 l 261 444 q 112 517 170 446 q 55 681 55 588 q 120 856 55 787 q 289 926 185 926 l 528 926 l 528 884 "},"−":{"x_min":53,"x_max":518.28125,"ha":569,"o":"m 518 419 l 53 419 l 53 529 l 518 529 l 518 419 "},"≠":{"x_min":46,"x_max":648.78125,"ha":694,"o":"m 648 285 l 316 285 l 243 135 l 141 135 l 214 285 l 47 285 l 47 398 l 265 398 l 322 515 l 46 515 l 46 628 l 373 628 l 450 782 l 550 782 l 475 628 l 648 628 l 648 515 l 425 515 l 368 398 l 648 398 l 648 285 "},"•":{"x_min":272,"x_max":654,"ha":926,"o":"m 654 472 q 598 335 654 393 q 463 278 542 278 q 328 335 384 278 q 272 472 272 393 q 328 609 272 551 q 463 667 384 667 q 598 609 542 667 q 654 472 654 551 "},"¥":{"x_min":25,"x_max":544.4375,"ha":569,"o":"m 544 926 l 381 481 l 486 481 l 486 396 l 350 396 l 350 0 l 214 0 l 214 396 l 77 396 l 77 481 l 183 481 l 25 926 l 166 926 l 283 534 l 405 926 l 544 926 "},"(":{"x_min":46,"x_max":327.953125,"ha":369,"o":"m 327 -113 l 247 -169 q 46 400 46 98 q 247 969 46 701 l 327 913 q 177 400 177 676 q 327 -113 177 123 "},"U":{"x_min":71,"x_max":560,"ha":631,"o":"m 560 298 q 507 69 560 140 q 315 -14 444 -14 q 123 69 189 -14 q 71 298 71 135 l 71 926 l 214 926 l 214 275 q 315 121 214 121 q 417 275 417 121 l 417 926 l 560 926 l 560 298 "},"◊":{"x_min":103,"x_max":823.828125,"ha":926,"o":"m 823 464 l 462 -36 l 103 464 l 462 963 l 823 464 m 678 463 l 462 758 l 248 463 l 462 168 l 678 463 "},"Ñ":{"x_min":71,"x_max":584,"ha":654,"o":"m 466 1024 q 398 1000 422 1000 q 334 1014 376 1000 q 268 1028 291 1028 q 187 1006 225 1028 l 187 1103 q 268 1124 225 1124 q 334 1110 291 1124 q 398 1097 376 1097 q 466 1124 426 1097 l 466 1024 m 584 0 l 456 0 l 207 616 l 207 0 l 71 0 l 71 926 l 215 926 l 448 350 l 448 926 l 584 926 l 584 0 "},"F":{"x_min":71,"x_max":494.609375,"ha":510,"o":"m 494 794 l 214 794 l 214 544 l 421 544 l 421 412 l 214 412 l 214 0 l 71 0 l 71 926 l 494 926 l 494 794 "},"­":{"x_min":53,"x_max":518.28125,"ha":569,"o":"m 518 419 l 53 419 l 53 529 l 518 529 l 518 419 "},":":{"x_min":53,"x_max":188,"ha":240,"o":"m 188 541 l 53 541 l 53 690 l 188 690 l 188 541 m 188 0 l 53 0 l 53 149 l 188 149 l 188 0 "},"Û":{"x_min":71,"x_max":560,"ha":631,"o":"m 475 1000 l 358 1000 l 315 1047 l 272 1000 l 155 1000 l 243 1124 l 387 1124 l 475 1000 m 560 298 q 507 69 560 140 q 315 -14 444 -14 q 123 69 189 -14 q 71 298 71 135 l 71 926 l 214 926 l 214 275 q 315 121 214 121 q 417 275 417 121 l 417 926 l 560 926 l 560 298 "},"*":{"x_min":51,"x_max":374.609375,"ha":425,"o":"m 374 770 l 281 749 l 344 677 l 260 618 l 212 698 l 163 618 l 80 677 l 142 749 l 51 770 l 81 868 l 170 830 l 160 926 l 263 926 l 255 830 l 342 868 l 374 770 "},"†":{"x_min":46,"x_max":523.78125,"ha":569,"o":"m 523 582 l 350 582 l 350 0 l 221 0 l 221 582 l 46 582 l 46 697 l 221 697 l 221 926 l 350 926 l 350 697 l 523 697 l 523 582 "},"°":{"x_min":143.96875,"x_max":550,"ha":694,"o":"m 550 727 q 490 587 550 645 q 346 529 430 529 q 202 587 262 529 q 144 727 142 645 l 144 727 q 203 868 144 810 q 347 926 263 926 q 490 868 430 926 q 550 727 550 810 m 471 727 q 434 812 471 777 q 347 848 397 848 q 259 812 296 848 q 223 727 223 777 q 259 642 223 677 q 347 607 296 607 q 434 642 397 607 q 471 727 471 677 "},"V":{"x_min":23,"x_max":577.171875,"ha":601,"o":"m 577 926 l 399 0 l 221 0 l 23 926 l 170 926 l 310 222 l 432 926 l 577 926 "},"å":{"x_min":52,"x_max":492.28125,"ha":550,"o":"m 382 863 q 352 793 382 821 q 281 766 322 766 q 209 793 239 766 q 179 863 179 821 q 210 932 179 904 q 281 960 240 960 q 352 932 322 960 q 382 863 382 904 m 492 0 l 358 0 q 347 80 347 30 q 190 -10 265 -10 q 82 48 118 -10 q 52 173 52 96 q 111 324 52 269 q 224 397 152 362 q 348 451 236 404 l 348 487 q 279 586 348 586 q 203 487 209 586 l 65 487 q 297 699 82 699 q 439 646 390 699 q 477 494 477 605 l 477 187 q 492 0 477 55 m 332 864 q 317 899 332 885 q 281 913 302 913 q 245 899 260 913 q 229 864 229 885 q 245 829 229 843 q 281 815 260 815 q 317 829 302 815 q 332 864 332 843 m 348 166 l 348 355 q 188 181 188 270 q 204 129 188 149 q 253 104 222 104 q 348 166 309 104 "}," ":{"x_min":0,"x_max":0,"ha":463},"0":{"x_min":53,"x_max":518,"ha":569,"o":"m 518 294 q 284 -14 518 -14 q 101 74 164 -14 q 53 294 53 142 l 53 631 q 284 940 53 940 q 469 849 406 940 q 518 631 518 780 l 518 294 m 383 265 l 383 659 q 369 763 383 731 q 284 812 348 812 q 186 671 186 812 l 186 252 q 284 114 186 114 q 369 162 346 114 q 383 265 383 193 "},"":{"x_min":15,"x_max":609.4375,"ha":658,"o":"m 609 294 q 355 -14 609 -14 q 148 88 213 -14 q 104 336 104 158 l 15 336 l 15 447 l 104 447 l 104 535 l 15 535 l 15 646 l 104 646 q 158 854 106 784 q 353 940 221 940 q 545 856 478 940 q 605 652 605 781 l 605 625 l 462 625 q 353 805 462 805 q 247 646 249 805 l 403 646 l 403 535 l 247 535 l 247 447 l 403 447 l 403 336 l 247 336 l 247 317 q 260 190 247 230 q 355 121 284 121 q 451 193 426 121 q 466 325 466 236 l 609 325 l 609 294 "},"”":{"x_min":55,"x_max":393,"ha":449,"o":"m 393 777 l 312 586 l 260 586 l 320 777 l 260 777 l 260 926 l 393 926 l 393 777 m 190 777 l 107 586 l 55 586 l 116 777 l 55 777 l 55 926 l 190 926 l 190 777 "},"¾":{"x_min":36,"x_max":915.171875,"ha":935,"o":"m 915 139 l 847 139 l 847 0 l 751 0 l 751 139 l 569 139 l 569 230 l 745 555 l 847 555 l 847 220 l 915 220 l 915 139 m 680 972 l 327 -46 l 255 -46 l 602 972 l 680 972 m 345 534 q 306 408 345 455 q 188 361 266 361 q 76 402 117 361 q 36 515 36 444 l 36 534 l 133 534 q 134 519 133 531 q 190 446 138 446 q 247 533 247 446 q 229 600 247 582 q 162 619 211 618 l 162 705 q 226 720 209 707 q 243 777 243 733 q 190 850 243 850 q 137 793 137 850 q 137 777 137 786 l 43 777 l 43 791 q 85 896 43 857 q 192 935 127 935 q 299 892 262 935 q 336 779 336 850 q 273 663 336 690 q 345 534 345 643 m 754 220 l 754 420 l 655 220 l 754 220 "},"@":{"x_min":72,"x_max":596,"ha":654,"o":"m 596 245 l 508 245 l 491 283 q 387 232 445 232 q 276 347 276 232 l 276 608 q 397 735 276 735 q 481 700 441 735 l 481 729 q 433 812 481 783 q 336 837 394 837 q 228 802 269 837 q 187 687 187 768 l 187 255 q 213 143 187 178 q 344 87 256 87 q 480 131 420 87 l 549 68 q 342 -14 472 -14 q 149 44 222 -14 q 72 224 72 108 l 72 708 q 147 884 72 824 q 334 940 215 940 q 519 887 450 940 q 596 716 596 828 l 596 245 m 481 378 l 481 589 q 436 642 481 642 q 393 589 393 642 l 393 378 q 437 326 393 326 q 481 378 481 326 "},"ö":{"x_min":55,"x_max":479,"ha":535,"o":"m 432 802 l 313 802 l 313 926 l 432 926 l 432 802 m 220 802 l 99 802 l 99 926 l 220 926 l 220 802 m 479 237 q 423 41 479 97 q 266 -14 367 -14 q 109 41 169 -14 q 55 237 55 91 l 55 451 q 109 647 55 591 q 266 704 164 704 q 422 648 365 704 q 479 451 479 592 l 479 237 m 350 230 l 350 459 q 266 586 350 586 q 184 459 184 586 l 184 230 q 266 104 184 104 q 350 230 350 104 "},"i":{"x_min":59,"x_max":190,"ha":250,"o":"m 190 791 l 59 791 l 59 926 l 190 926 l 190 791 m 190 0 l 59 0 l 59 690 l 190 690 l 190 0 "},"≤":{"x_min":46,"x_max":648.78125,"ha":694,"o":"m 648 205 l 46 483 l 46 590 l 648 868 l 648 749 l 179 536 l 647 323 l 648 205 m 648 53 l 46 53 l 46 166 l 648 166 l 648 53 "},"Õ":{"x_min":61,"x_max":567,"ha":628,"o":"m 452 1024 q 384 1000 408 1000 q 320 1014 362 1000 q 255 1028 279 1028 q 174 1006 212 1028 l 174 1103 q 255 1124 212 1124 q 320 1110 279 1124 q 384 1097 362 1097 q 452 1124 412 1097 l 452 1024 m 567 294 q 514 74 567 148 q 314 -14 450 -14 q 113 74 181 -14 q 61 294 61 144 l 61 631 q 113 849 61 774 q 314 940 177 940 q 514 849 446 940 q 567 631 567 778 l 567 294 m 424 297 l 424 628 q 405 755 424 721 q 314 805 379 805 q 219 746 242 805 q 204 628 204 712 l 204 297 q 219 179 204 213 q 314 121 242 121 q 408 179 385 121 q 424 297 424 213 "},"þ":{"x_min":59,"x_max":480,"ha":538,"o":"m 480 262 q 463 88 480 144 q 340 -10 432 -10 q 188 68 268 -10 l 188 -236 l 59 -236 l 59 926 l 188 926 l 188 622 q 340 700 268 700 q 463 601 432 700 q 480 427 480 545 l 480 262 m 351 447 q 344 536 351 510 q 278 586 328 586 q 188 551 235 586 l 188 138 q 278 104 238 104 q 344 152 328 104 q 351 242 351 177 l 351 447 "},"]":{"x_min":52,"x_max":292,"ha":357,"o":"m 292 -132 l 52 -132 l 52 -11 l 160 -11 l 160 805 l 52 805 l 52 926 l 292 926 l 292 -132 "},"m":{"x_min":59,"x_max":758,"ha":818,"o":"m 758 0 l 629 0 l 629 505 q 578 586 629 586 q 473 516 524 586 l 473 0 l 344 0 l 344 505 q 294 586 344 586 q 190 516 241 586 l 190 0 l 59 0 l 59 690 l 190 690 l 190 601 q 360 699 274 699 q 469 601 451 699 q 644 699 558 699 q 758 539 758 699 l 758 0 "},"8":{"x_min":50,"x_max":519,"ha":569,"o":"m 519 260 q 284 -14 519 -14 q 112 54 174 -14 q 50 265 50 122 q 69 397 50 349 q 162 487 95 459 q 77 572 99 516 q 61 691 61 613 q 284 940 61 940 q 508 691 508 940 q 491 572 508 613 q 406 487 469 516 q 501 394 474 459 q 519 260 519 347 m 373 681 q 284 812 373 812 q 196 681 196 812 q 284 550 196 550 q 373 681 373 550 m 380 266 q 284 418 380 418 q 188 266 188 418 q 284 114 188 114 q 380 266 380 114 "},"ž":{"x_min":32,"x_max":442,"ha":474,"o":"m 395 926 l 308 802 l 163 802 l 76 926 l 193 926 l 236 879 l 279 926 l 395 926 m 442 0 l 32 0 l 32 129 l 293 565 l 54 565 l 54 690 l 442 690 l 442 560 l 180 125 l 442 125 l 442 0 "},"R":{"x_min":71,"x_max":572.390625,"ha":610,"o":"m 572 0 l 422 0 l 300 381 l 214 381 l 214 0 l 71 0 l 71 926 l 294 926 q 561 660 561 926 q 436 419 561 484 l 572 0 m 412 652 q 377 763 412 726 q 266 794 349 794 l 214 794 l 214 513 l 266 513 q 378 543 345 513 q 412 652 412 573 "},"á":{"x_min":52,"x_max":492.28125,"ha":550,"o":"m 425 926 l 324 802 l 227 802 l 290 926 l 425 926 m 492 0 l 358 0 q 347 80 347 30 q 190 -10 265 -10 q 82 48 118 -10 q 52 173 52 96 q 111 324 52 269 q 224 397 152 362 q 348 451 236 404 l 348 487 q 279 586 348 586 q 203 487 209 586 l 65 487 q 297 699 82 699 q 439 646 390 699 q 477 494 477 605 l 477 187 q 492 0 477 55 m 348 166 l 348 355 q 188 181 188 270 q 204 129 188 149 q 253 104 222 104 q 348 166 309 104 "},"×":{"x_min":81,"x_max":487.9375,"ha":569,"o":"m 487 599 l 362 474 l 486 351 l 406 271 l 283 394 l 158 271 l 81 348 l 206 473 l 85 593 l 165 673 l 285 552 l 410 678 l 487 599 "},"o":{"x_min":55,"x_max":479,"ha":535,"o":"m 479 237 q 423 41 479 97 q 266 -14 367 -14 q 109 41 169 -14 q 55 237 55 91 l 55 451 q 109 647 55 591 q 266 704 164 704 q 422 648 365 704 q 479 451 479 592 l 479 237 m 350 230 l 350 459 q 266 586 350 586 q 184 459 184 586 l 184 230 q 266 104 184 104 q 350 230 350 104 "},"5":{"x_min":62,"x_max":515,"ha":569,"o":"m 515 319 q 476 88 515 163 q 280 -14 421 -14 q 62 234 62 -14 l 62 261 l 195 261 q 195 238 195 254 q 281 114 195 114 q 369 191 350 114 q 376 324 376 220 q 366 455 376 417 q 280 533 346 533 q 185 459 226 533 l 62 459 l 70 926 l 478 926 l 478 801 l 191 801 l 187 590 q 327 647 252 647 q 491 534 449 647 q 515 319 515 467 "},"õ":{"x_min":55,"x_max":479,"ha":535,"o":"m 405 826 q 338 802 363 802 q 273 816 316 802 q 207 830 231 830 q 127 809 164 830 l 127 905 q 207 926 164 926 q 273 913 231 926 q 338 900 316 900 q 405 926 368 900 l 405 826 m 479 237 q 423 41 479 97 q 266 -14 367 -14 q 109 41 169 -14 q 55 237 55 91 l 55 451 q 109 647 55 591 q 266 704 164 704 q 422 648 365 704 q 479 451 479 592 l 479 237 m 350 230 l 350 459 q 266 586 350 586 q 184 459 184 586 l 184 230 q 266 104 184 104 q 350 230 350 104 "},"7":{"x_min":54,"x_max":498,"ha":569,"o":"m 498 826 l 291 0 l 149 0 l 355 801 l 54 801 l 54 926 l 498 926 l 498 826 "},"K":{"x_min":71,"x_max":602.953125,"ha":617,"o":"m 602 0 l 445 0 l 290 436 l 214 306 l 214 0 l 71 0 l 71 926 l 214 926 l 214 541 l 420 926 l 575 926 l 379 588 l 602 0 "},",":{"x_min":53,"x_max":188,"ha":240,"o":"m 188 0 l 107 -192 l 53 -192 l 115 0 l 53 0 l 53 149 l 188 149 l 188 0 "},"d":{"x_min":56,"x_max":477,"ha":538,"o":"m 477 0 l 348 0 l 348 68 q 195 -10 267 -10 q 74 88 104 -10 q 56 262 56 145 l 56 427 q 72 600 56 546 q 195 699 103 699 q 348 620 267 699 l 348 926 l 477 926 l 477 0 m 348 138 l 348 551 q 257 586 296 586 q 191 530 207 586 q 185 435 185 505 l 185 242 q 193 154 185 180 q 257 104 208 104 q 348 138 297 104 "},"¨":{"x_min":180,"x_max":513,"ha":694,"o":"m 513 803 l 392 803 l 392 926 l 513 926 l 513 803 m 301 803 l 180 803 l 180 926 l 301 926 l 301 803 "},"Ô":{"x_min":61,"x_max":567,"ha":628,"o":"m 473 1000 l 356 1000 l 313 1047 l 270 1000 l 154 1000 l 241 1124 l 386 1124 l 473 1000 m 567 294 q 514 74 567 148 q 314 -14 450 -14 q 113 74 181 -14 q 61 294 61 144 l 61 631 q 113 849 61 774 q 314 940 177 940 q 514 849 446 940 q 567 631 567 778 l 567 294 m 424 297 l 424 628 q 405 755 424 721 q 314 805 379 805 q 219 746 242 805 q 204 628 204 712 l 204 297 q 219 179 204 213 q 314 121 242 121 q 408 179 385 121 q 424 297 424 213 "},"E":{"x_min":71,"x_max":490.453125,"ha":518,"o":"m 490 0 l 71 0 l 71 926 l 490 926 l 490 794 l 214 794 l 214 550 l 418 550 l 418 418 l 214 418 l 214 132 l 490 132 l 490 0 "},"Y":{"x_min":23,"x_max":588.28125,"ha":611,"o":"m 588 926 l 374 360 l 374 0 l 230 0 l 230 360 l 23 926 l 179 926 l 303 534 l 432 926 l 588 926 "},"\"":{"x_min":68,"x_max":423.546875,"ha":492,"o":"m 423 926 l 400 554 l 308 554 l 284 926 l 423 926 m 206 926 l 184 554 l 92 554 l 68 926 l 206 926 "},"‹":{"x_min":46,"x_max":189,"ha":235,"o":"m 189 129 l 46 247 l 46 446 l 189 565 l 189 398 l 136 347 l 189 295 l 189 129 "},"˙":{"x_min":287,"x_max":406,"ha":694,"o":"m 406 803 l 287 803 l 287 926 l 406 926 l 406 803 "},"ê":{"x_min":55,"x_max":484.15625,"ha":540,"o":"m 430 802 l 313 802 l 270 850 l 225 802 l 110 802 l 198 926 l 342 926 l 430 802 m 484 213 q 436 48 484 99 q 271 -14 379 -14 q 99 56 150 -14 q 55 244 55 117 l 55 451 q 61 555 55 522 q 110 647 74 610 q 267 704 168 704 q 429 640 370 704 q 482 438 482 584 l 482 324 l 184 324 l 184 261 q 193 158 184 186 q 272 104 213 104 q 343 148 325 104 q 354 238 354 176 l 484 238 l 484 213 m 353 438 l 353 475 q 267 590 353 590 q 184 475 184 590 l 184 438 l 353 438 "},"Ï":{"x_min":0,"x_max":284.71875,"ha":285,"o":"m 284 1000 l 181 1000 l 181 1124 l 284 1124 l 284 1000 m 102 1000 l 0 1000 l 0 1124 l 102 1124 l 102 1000 m 214 0 l 71 0 l 71 926 l 214 926 l 214 0 "},"„":{"x_min":55,"x_max":393,"ha":449,"o":"m 393 0 l 312 -192 l 260 -192 l 320 0 l 260 0 l 260 149 l 393 149 l 393 0 m 190 0 l 107 -192 l 55 -192 l 116 0 l 55 0 l 55 149 l 190 149 l 190 0 "},"Â":{"x_min":37,"x_max":598.109375,"ha":626,"o":"m 471 1000 l 356 1000 l 312 1047 l 268 1000 l 152 1000 l 239 1124 l 385 1124 l 471 1000 m 598 0 l 450 0 l 412 201 l 213 201 l 177 0 l 37 0 l 214 926 l 410 926 l 598 0 m 387 333 l 310 748 l 237 333 l 387 333 "},"Í":{"x_min":71,"x_max":283.5,"ha":285,"o":"m 283 1124 l 182 1000 l 84 1000 l 148 1124 l 283 1124 m 214 0 l 71 0 l 71 926 l 214 926 l 214 0 "},"´":{"x_min":290,"x_max":487.21875,"ha":694,"o":"m 487 926 l 387 803 l 290 803 l 352 926 l 487 926 "},"ì":{"x_min":-6,"x_max":191,"ha":250,"o":"m 191 802 l 94 802 l -6 926 l 127 926 l 191 802 m 191 0 l 60 0 l 60 690 l 191 690 l 191 0 "},"±":{"x_min":46,"x_max":648.78125,"ha":694,"o":"m 648 485 l 410 485 l 410 254 l 285 254 l 285 485 l 46 485 l 46 600 l 285 600 l 285 831 l 410 831 l 410 600 l 648 600 l 648 485 m 648 85 l 46 85 l 46 202 l 648 202 l 648 85 "},"Ú":{"x_min":71,"x_max":560,"ha":631,"o":"m 455 1124 l 355 1000 l 258 1000 l 321 1124 l 455 1124 m 560 298 q 507 69 560 140 q 315 -14 444 -14 q 123 69 189 -14 q 71 298 71 135 l 71 926 l 214 926 l 214 275 q 315 121 214 121 q 417 275 417 121 l 417 926 l 560 926 l 560 298 "},"|":{"x_min":284,"x_max":409,"ha":694,"o":"m 409 -347 l 284 -347 l 284 1042 l 409 1042 l 409 -347 "},"§":{"x_min":46,"x_max":524,"ha":569,"o":"m 524 373 q 404 211 524 256 q 459 80 459 141 q 409 -36 459 5 q 282 -79 358 -79 q 143 -29 194 -79 q 93 105 93 19 q 96 133 93 113 l 223 133 q 221 108 221 116 q 282 39 221 39 q 327 84 327 39 q 302 134 327 107 l 137 319 q 46 486 46 422 q 184 637 46 588 q 132 705 143 685 q 109 785 109 744 q 164 901 109 856 q 287 940 214 940 q 420 891 369 940 q 471 761 471 842 q 469 718 471 731 l 342 718 q 337 787 342 770 q 286 823 326 823 q 241 781 241 823 q 275 724 241 764 l 469 502 q 524 373 524 440 m 392 363 q 354 440 392 398 l 240 568 q 177 497 177 540 q 205 434 177 465 l 339 287 q 392 363 392 312 "},"Ý":{"x_min":23,"x_max":588.28125,"ha":611,"o":"m 436 1124 l 336 1000 l 239 1000 l 303 1124 l 436 1124 m 588 926 l 374 360 l 374 0 l 231 0 l 231 360 l 23 926 l 181 926 l 304 534 l 432 926 l 588 926 "},"b":{"x_min":59,"x_max":481,"ha":538,"o":"m 481 262 q 462 88 481 147 q 341 -10 431 -10 q 190 68 270 -10 l 190 0 l 59 0 l 59 926 l 190 926 l 190 620 q 341 699 270 699 q 462 600 431 699 q 481 427 481 543 l 481 262 m 350 447 q 343 537 350 512 q 278 586 327 586 q 190 551 241 586 l 190 138 q 279 104 239 104 q 343 154 327 104 q 350 242 350 177 l 350 447 "},"q":{"x_min":56,"x_max":477,"ha":538,"o":"m 477 -236 l 348 -236 l 348 68 q 195 -10 267 -10 q 74 88 104 -10 q 56 262 56 145 l 56 427 q 74 600 56 544 q 195 699 104 699 q 348 620 270 699 l 348 690 l 477 690 l 477 -236 m 348 138 l 348 551 q 257 586 300 586 q 193 536 208 586 q 185 445 185 509 l 185 244 q 193 154 185 181 q 257 104 208 104 q 348 138 297 104 "},"Ω":{"x_min":39,"x_max":886,"ha":925,"o":"m 886 0 l 520 0 l 520 101 q 695 260 633 158 q 757 490 757 362 q 679 726 757 624 q 464 836 594 836 q 246 727 328 836 q 170 488 170 629 q 405 101 170 231 l 405 0 l 39 0 l 39 113 l 270 113 q 39 506 39 251 q 159 819 39 690 q 462 949 279 949 q 767 818 645 949 q 886 506 886 690 q 655 113 886 251 l 886 113 l 886 0 "},"Ö":{"x_min":61,"x_max":567,"ha":628,"o":"m 480 1000 l 359 1000 l 359 1124 l 480 1124 l 480 1000 m 267 1000 l 147 1000 l 147 1124 l 267 1124 l 267 1000 m 567 294 q 514 74 567 148 q 314 -14 450 -14 q 113 74 181 -14 q 61 294 61 144 l 61 631 q 113 849 61 774 q 314 940 177 940 q 514 849 446 940 q 567 631 567 778 l 567 294 m 424 297 l 424 628 q 405 755 424 721 q 314 805 379 805 q 219 746 242 805 q 204 628 204 712 l 204 297 q 219 179 204 213 q 314 121 242 121 q 408 179 385 121 q 424 297 424 213 "},"z":{"x_min":32,"x_max":442,"ha":474,"o":"m 442 0 l 32 0 l 32 129 l 293 565 l 54 565 l 54 690 l 442 690 l 442 559 l 180 125 l 442 125 l 442 0 "},"™":{"x_min":29,"x_max":755,"ha":810,"o":"m 755 399 l 667 399 l 667 750 l 583 399 l 525 399 l 444 748 l 444 399 l 355 399 l 355 926 l 484 926 l 555 623 l 627 926 l 755 926 l 755 399 m 330 843 l 226 843 l 226 399 l 133 399 l 133 843 l 29 843 l 29 926 l 330 926 l 330 843 "},"ã":{"x_min":52,"x_max":492.28125,"ha":550,"o":"m 424 826 q 356 802 379 802 q 291 816 333 802 q 225 830 249 830 q 145 809 182 830 l 145 905 q 225 926 182 926 q 291 913 249 926 q 356 900 333 900 q 424 926 383 900 l 424 826 m 492 0 l 358 0 q 347 80 347 30 q 190 -10 265 -10 q 82 48 118 -10 q 52 173 52 96 q 111 324 52 269 q 224 397 152 362 q 348 451 236 404 l 348 487 q 279 586 348 586 q 203 487 209 586 l 65 487 q 297 699 82 699 q 439 646 390 699 q 477 494 477 605 l 477 187 q 492 0 477 55 m 348 166 l 348 355 q 188 181 188 270 q 204 129 188 149 q 253 104 222 104 q 348 166 309 104 "},"æ":{"x_min":52,"x_max":777,"ha":832,"o":"m 777 213 q 729 51 777 101 q 563 -10 672 -10 q 383 69 439 -10 q 206 -10 293 -10 q 88 45 128 -10 q 52 174 52 94 q 111 324 52 266 q 224 398 150 362 q 348 451 235 404 l 348 487 q 279 586 348 586 q 203 487 209 586 l 65 487 q 296 699 82 699 q 422 663 375 699 q 560 699 479 699 q 722 636 664 699 q 775 438 775 581 l 775 324 l 477 324 l 477 261 q 486 158 477 187 q 564 104 504 104 q 636 148 618 104 q 647 238 647 174 l 777 238 l 777 213 m 646 438 l 646 475 q 560 591 646 591 q 477 475 477 591 l 477 438 l 646 438 m 348 166 l 348 355 q 188 181 188 270 q 204 129 188 149 q 253 104 222 104 q 348 166 309 104 "},"®":{"x_min":65,"x_max":609,"ha":674,"o":"m 609 773 q 532 570 609 655 q 337 482 453 482 q 141 570 220 482 q 65 773 65 655 q 142 977 65 891 q 337 1064 220 1064 q 530 977 452 1064 q 609 773 609 890 m 567 773 q 501 948 567 873 q 336 1024 435 1024 q 171 948 238 1024 q 105 773 105 873 q 170 597 105 672 q 336 522 236 522 q 503 599 435 522 q 567 773 567 673 m 430 620 l 372 620 l 330 743 l 307 743 l 307 620 l 251 620 l 251 926 l 330 926 q 425 837 425 926 q 383 756 425 778 l 430 620 m 368 834 q 320 876 368 876 l 307 876 l 307 793 l 320 793 q 368 834 368 793 "},"É":{"x_min":71,"x_max":490.453125,"ha":518,"o":"m 418 1124 l 318 1000 l 221 1000 l 283 1124 l 418 1124 m 490 0 l 71 0 l 71 926 l 490 926 l 490 794 l 214 794 l 214 550 l 418 550 l 418 418 l 214 418 l 214 132 l 490 132 l 490 0 "},"~":{"x_min":128,"x_max":798.828125,"ha":926,"o":"m 798 974 q 719 859 758 897 q 590 811 665 811 q 448 854 541 811 q 314 897 355 897 q 200 800 251 897 l 128 846 q 201 964 169 932 q 323 1018 250 1018 q 470 975 376 1018 q 605 933 564 933 q 678 957 648 933 q 725 1018 697 974 l 798 974 "},"³":{"x_min":37,"x_max":346.71875,"ha":385,"o":"m 346 534 q 307 408 346 455 q 189 361 267 361 q 77 402 118 361 q 37 515 37 444 l 37 534 l 134 534 q 135 519 134 531 q 191 446 139 446 q 248 533 248 446 q 230 600 248 582 q 163 619 212 618 l 163 705 q 227 720 210 707 q 244 777 244 733 q 191 850 244 850 q 138 793 138 850 q 138 777 138 786 l 44 777 l 44 791 q 86 896 44 857 q 193 935 128 935 q 300 892 263 935 q 337 779 337 850 q 274 663 337 690 q 346 534 346 643 "},"¡":{"x_min":74,"x_max":226.78125,"ha":301,"o":"m 218 541 l 83 541 l 83 690 l 218 690 l 218 541 m 226 -236 l 74 -236 l 107 409 l 193 409 l 226 -236 "},"[":{"x_min":65,"x_max":305.28125,"ha":357,"o":"m 305 -132 l 65 -132 l 65 926 l 305 926 l 305 805 l 196 805 l 196 -11 l 305 -11 l 305 -132 "},"L":{"x_min":71,"x_max":498.78125,"ha":517,"o":"m 498 0 l 71 0 l 71 926 l 214 926 l 214 132 l 498 132 l 498 0 "}," ":{"x_min":0,"x_max":0,"ha":347},"∑":{"x_min":37,"x_max":854,"ha":926,"o":"m 854 -347 l 37 -347 l 37 -220 l 380 373 l 37 916 l 37 1042 l 841 1042 l 841 718 l 729 718 l 717 929 l 177 929 l 525 373 l 175 -235 l 729 -234 l 735 -22 l 854 -22 l 854 -347 "},"%":{"x_min":41,"x_max":704,"ha":746,"o":"m 297 601 q 169 438 297 438 q 41 601 41 438 l 41 773 q 169 935 41 935 q 297 773 297 935 l 297 601 m 602 926 l 218 0 l 142 0 l 525 926 l 602 926 m 704 152 q 576 -10 704 -10 q 448 152 448 -10 l 448 325 q 576 487 448 487 q 704 325 704 487 l 704 152 m 215 586 l 215 787 q 168 861 215 861 q 124 787 124 861 l 124 586 q 168 513 124 513 q 215 586 215 513 m 621 137 l 621 339 q 576 413 621 413 q 530 339 530 413 l 530 137 q 576 65 530 65 q 621 137 621 65 "},"P":{"x_min":71,"x_max":577,"ha":604,"o":"m 577 645 q 503 434 577 506 q 308 375 442 375 l 214 375 l 214 0 l 71 0 l 71 926 l 308 926 q 513 857 450 926 q 577 645 577 788 m 428 655 q 393 764 428 735 q 276 794 359 794 l 214 794 l 214 507 l 276 507 q 396 538 364 507 q 428 655 428 569 "},"∏":{"x_min":53,"x_max":933.546875,"ha":985,"o":"m 933 -347 l 582 -347 l 582 -234 l 696 -234 l 696 929 l 290 929 l 290 -234 l 401 -234 l 401 -347 l 53 -347 l 53 -234 l 164 -234 l 164 929 l 53 929 l 53 1042 l 933 1042 l 933 929 l 822 929 l 822 -234 l 933 -234 l 933 -347 "},"À":{"x_min":37,"x_max":598.109375,"ha":626,"o":"m 370 1000 l 271 1000 l 171 1124 l 306 1124 l 370 1000 m 598 0 l 450 0 l 412 201 l 213 201 l 177 0 l 37 0 l 214 926 l 410 926 l 598 0 m 387 333 l 310 748 l 237 333 l 387 333 "},"_":{"x_min":0,"x_max":694.453125,"ha":694,"o":"m 694 -196 l 0 -196 l 0 -85 l 694 -85 l 694 -196 "},"ñ":{"x_min":60,"x_max":474,"ha":535,"o":"m 405 826 q 337 802 365 802 q 273 816 315 802 q 208 830 232 830 q 128 809 165 830 l 128 905 q 208 926 165 926 q 274 913 232 926 q 339 900 316 900 q 405 926 365 900 l 405 826 m 474 0 l 345 0 l 345 505 q 295 586 345 586 q 191 516 242 586 l 191 0 l 60 0 l 60 690 l 191 690 l 191 601 q 361 699 275 699 q 474 539 474 699 l 474 0 "},"+":{"x_min":46,"x_max":648.78125,"ha":694,"o":"m 648 407 l 410 407 l 410 178 l 285 178 l 285 407 l 46 407 l 46 524 l 285 524 l 285 753 l 410 753 l 410 524 l 648 524 l 648 407 "},"‚":{"x_min":55,"x_max":190,"ha":246,"o":"m 190 0 l 107 -192 l 55 -192 l 116 0 l 55 0 l 55 149 l 190 149 l 190 0 "},"½":{"x_min":78,"x_max":896,"ha":935,"o":"m 896 413 q 834 252 896 341 q 723 113 823 235 q 698 83 715 103 l 883 83 l 883 0 l 584 0 l 584 80 q 694 213 640 147 q 787 355 769 308 q 797 415 797 380 q 744 479 797 479 q 686 387 686 479 l 590 387 l 590 409 q 747 564 590 564 q 856 523 816 564 q 896 413 896 483 m 680 972 l 326 -46 l 254 -46 l 601 972 l 680 972 m 260 370 l 164 370 l 164 788 l 78 788 l 78 847 q 201 926 166 881 l 260 926 l 260 370 "},"Æ":{"x_min":5,"x_max":855,"ha":882,"o":"m 855 0 l 436 0 l 436 201 l 235 201 l 159 0 l 5 0 l 357 926 l 855 926 l 855 794 l 579 794 l 579 550 l 782 550 l 782 418 l 579 418 l 579 132 l 855 132 l 855 0 m 436 333 l 436 748 l 284 333 l 436 333 "},"Ë":{"x_min":71,"x_max":490.453125,"ha":518,"o":"m 445 1000 l 324 1000 l 324 1124 l 445 1124 l 445 1000 m 232 1000 l 111 1000 l 111 1124 l 232 1124 l 232 1000 m 490 0 l 71 0 l 71 926 l 490 926 l 490 794 l 214 794 l 214 550 l 418 550 l 418 418 l 214 418 l 214 132 l 490 132 l 490 0 "},"'":{"x_min":68,"x_max":206.875,"ha":275,"o":"m 206 926 l 184 554 l 92 554 l 68 926 l 206 926 "},"Š":{"x_min":28,"x_max":563,"ha":592,"o":"m 455 1124 l 368 1000 l 223 1000 l 136 1124 l 253 1124 l 296 1076 l 339 1124 l 455 1124 m 563 221 q 490 49 563 113 q 308 -14 418 -14 q 28 247 71 -14 l 165 287 q 308 121 191 121 q 384 150 355 121 q 414 226 414 179 q 321 372 414 295 q 148 511 235 441 q 56 712 56 604 q 125 877 56 815 q 297 940 194 940 q 557 708 497 940 l 419 668 q 297 805 386 805 q 231 777 257 805 q 205 710 205 750 q 297 567 205 643 q 470 428 384 498 q 563 221 563 334 "},"ª":{"x_min":65,"x_max":310.828125,"ha":376,"o":"m 310 555 l 231 555 q 224 593 227 568 q 144 551 185 551 q 65 649 65 551 q 117 749 65 712 q 225 798 142 767 l 225 815 q 191 863 225 863 q 154 813 156 863 l 71 813 q 201 931 83 931 q 280 901 251 931 q 303 819 303 878 l 303 658 q 310 555 303 590 m 303 413 l 73 413 l 73 459 l 303 459 l 303 413 m 225 647 l 225 740 q 146 655 146 698 q 177 618 146 618 q 225 647 205 618 "},"Œ":{"x_min":61,"x_max":831.84375,"ha":860,"o":"m 831 0 l 329 0 q 61 288 61 0 l 61 635 q 329 926 61 926 l 831 926 l 831 794 l 555 794 l 555 550 l 758 550 l 758 418 l 555 418 l 555 132 l 831 132 l 831 0 m 411 132 l 411 794 l 341 794 q 226 734 256 794 q 204 596 204 692 l 204 329 q 224 191 204 231 q 341 132 255 132 l 411 132 "},"˛":{"x_min":279,"x_max":470.65625,"ha":694,"o":"m 470 -148 l 459 -228 q 404 -238 433 -238 q 317 -214 352 -238 q 279 -136 279 -186 q 358 0 279 -68 l 430 0 q 361 -105 361 -56 q 429 -157 361 -157 q 470 -148 440 -157 "},"ð":{"x_min":55,"x_max":479,"ha":535,"o":"m 479 238 q 424 41 479 93 q 267 -14 366 -14 q 109 40 164 -14 q 55 238 55 95 l 55 427 q 77 600 55 544 q 208 694 112 694 q 350 637 276 694 q 287 793 333 720 l 220 734 l 180 779 l 248 838 q 207 879 248 838 l 271 945 q 323 906 289 934 l 396 974 l 436 928 l 366 864 q 479 534 479 734 l 479 238 m 350 230 l 350 459 q 266 586 350 586 q 184 459 184 586 l 184 230 q 266 104 184 104 q 350 230 350 104 "},"T":{"x_min":9,"x_max":511.78125,"ha":521,"o":"m 511 794 l 331 794 l 331 0 l 188 0 l 188 794 l 9 794 l 9 926 l 511 926 l 511 794 "},"š":{"x_min":28,"x_max":477,"ha":503,"o":"m 411 926 l 323 802 l 179 802 l 91 926 l 208 926 l 251 879 l 294 926 l 411 926 m 477 190 q 417 41 477 97 q 264 -14 358 -14 q 28 180 91 -14 l 148 222 q 264 104 186 104 q 316 123 294 104 q 338 173 338 142 q 260 266 338 220 q 116 355 129 345 q 39 510 39 419 q 96 649 39 595 q 240 704 154 704 q 464 537 400 704 l 346 486 q 239 586 308 586 q 191 569 211 586 q 171 524 171 552 q 250 436 171 479 q 397 348 379 363 q 477 190 477 283 "},"Þ":{"x_min":71,"x_max":577,"ha":604,"o":"m 577 507 q 308 232 577 232 l 214 232 l 214 0 l 71 0 l 71 926 l 214 926 l 214 782 l 308 782 q 577 507 577 782 m 428 507 q 394 620 428 590 q 276 650 361 650 l 214 650 l 214 364 l 276 364 q 394 393 361 364 q 428 507 428 423 "},"j":{"x_min":-32,"x_max":210,"ha":268,"o":"m 210 791 l 81 791 l 81 926 l 210 926 l 210 791 m 210 -9 q 171 -173 210 -127 q 22 -232 120 -232 q -32 -225 -1 -232 l -32 -100 q 8 -104 9 -104 q 71 -63 55 -104 q 81 18 81 -38 l 81 690 l 210 690 l 210 -9 "},"1":{"x_min":115,"x_max":383,"ha":569,"o":"m 383 0 l 248 0 l 248 708 l 115 708 l 115 792 q 303 926 238 848 l 383 926 l 383 0 "},"›":{"x_min":46,"x_max":189,"ha":235,"o":"m 189 247 l 46 129 l 46 295 l 100 347 l 46 398 l 46 565 l 189 446 l 189 247 "},"ı":{"x_min":59,"x_max":190,"ha":250,"o":"m 190 0 l 59 0 l 59 690 l 190 690 l 190 0 "},"ä":{"x_min":52,"x_max":492.28125,"ha":550,"o":"m 442 802 l 321 802 l 321 926 l 442 926 l 442 802 m 228 802 l 108 802 l 108 926 l 228 926 l 228 802 m 492 0 l 358 0 q 347 80 347 30 q 190 -10 265 -10 q 82 48 118 -10 q 52 173 52 96 q 111 324 52 269 q 224 397 152 362 q 348 451 236 404 l 348 487 q 279 586 348 586 q 203 487 209 586 l 65 487 q 297 699 82 699 q 439 646 390 699 q 477 494 477 605 l 477 187 q 492 0 477 55 m 348 166 l 348 355 q 188 181 188 270 q 204 129 188 149 q 253 104 222 104 q 348 166 309 104 "},"<":{"x_min":46,"x_max":648.78125,"ha":694,"o":"m 648 117 l 46 407 l 46 514 l 648 803 l 648 679 l 179 460 l 647 240 l 648 117 "},"£":{"x_min":17,"x_max":550.328125,"ha":569,"o":"m 550 243 q 518 78 548 145 q 392 -10 476 -10 q 281 21 347 -10 q 194 52 215 52 q 105 -14 153 52 l 17 75 q 151 184 79 175 q 185 286 185 237 q 150 406 185 330 l 33 406 l 33 491 l 121 491 q 64 709 64 643 q 126 878 64 816 q 294 940 189 940 q 464 870 404 940 q 520 691 520 804 l 520 675 l 387 675 q 293 812 384 812 q 226 784 250 812 q 202 713 202 756 q 229 586 202 655 q 264 491 231 579 l 423 491 l 423 406 l 292 406 q 312 289 312 346 q 269 162 312 227 q 316 144 278 160 q 365 133 346 133 q 426 243 426 133 l 550 243 "},"¹":{"x_min":79,"x_max":261,"ha":385,"o":"m 261 371 l 165 371 l 165 788 l 79 788 l 79 847 q 202 926 167 881 l 261 926 l 261 371 "},"t":{"x_min":15,"x_max":373.328125,"ha":379,"o":"m 373 0 q 287 -10 322 -10 q 145 41 190 -10 q 114 192 114 78 l 114 573 l 15 573 l 15 690 l 114 690 l 114 879 l 245 879 l 245 690 l 362 690 l 362 573 l 245 573 l 245 206 q 325 108 245 108 q 373 116 347 108 l 373 0 "},"¬":{"x_min":46,"x_max":649,"ha":694,"o":"m 649 0 l 524 0 l 524 258 l 46 258 l 46 371 l 649 371 l 649 0 "},"ù":{"x_min":60,"x_max":474,"ha":535,"o":"m 325 802 l 226 802 l 126 926 l 261 926 l 325 802 m 474 0 l 345 0 l 345 88 q 174 -10 261 -10 q 60 149 60 -10 l 60 690 l 191 690 l 191 184 q 239 104 191 104 q 345 173 296 104 l 345 690 l 474 690 l 474 0 "},"W":{"x_min":28,"x_max":857.171875,"ha":885,"o":"m 857 926 l 700 0 l 566 0 l 447 627 l 334 0 l 201 0 l 28 926 l 166 926 l 272 329 l 383 926 l 507 926 l 629 329 l 722 926 l 857 926 "},"ï":{"x_min":4,"x_max":245.65625,"ha":250,"o":"m 245 802 l 158 802 l 158 926 l 245 926 l 245 802 m 91 802 l 4 802 l 4 926 l 91 926 l 91 802 m 191 0 l 60 0 l 60 690 l 191 690 l 191 0 "},">":{"x_min":46,"x_max":648.78125,"ha":694,"o":"m 648 407 l 46 117 l 46 241 l 515 460 l 47 679 l 46 803 l 648 514 l 648 407 "},"v":{"x_min":14,"x_max":473.71875,"ha":488,"o":"m 473 690 l 319 0 l 183 0 l 14 690 l 151 690 l 250 251 l 337 690 l 473 690 "},"û":{"x_min":60,"x_max":474,"ha":535,"o":"m 426 802 l 311 802 l 266 850 l 223 802 l 107 802 l 194 926 l 339 926 l 426 802 m 474 0 l 345 0 l 345 88 q 174 -10 261 -10 q 60 149 60 -10 l 60 690 l 191 690 l 191 184 q 239 104 191 104 q 345 173 296 104 l 345 690 l 474 690 l 474 0 "},"Ò":{"x_min":61,"x_max":567,"ha":628,"o":"m 370 1000 l 273 1000 l 173 1124 l 308 1124 l 370 1000 m 567 294 q 514 74 567 148 q 314 -14 450 -14 q 113 74 181 -14 q 61 294 61 144 l 61 631 q 113 849 61 774 q 314 940 177 940 q 514 849 446 940 q 567 631 567 778 l 567 294 m 424 297 l 424 628 q 405 755 424 721 q 314 805 379 805 q 219 746 242 805 q 204 628 204 712 l 204 297 q 219 179 204 213 q 314 121 242 121 q 408 179 385 121 q 424 297 424 213 "},"&":{"x_min":46,"x_max":614.0625,"ha":651,"o":"m 614 -14 q 439 77 521 -4 q 258 -10 348 -10 q 106 57 166 -10 q 46 217 46 124 q 171 483 46 338 q 109 705 109 601 q 158 864 109 798 q 301 935 211 935 q 427 880 379 935 q 475 746 475 825 q 425 594 475 672 q 325 466 407 565 q 430 286 371 361 q 469 429 461 343 l 593 413 q 519 183 582 281 q 614 124 550 141 l 614 -14 m 344 767 q 290 847 344 847 q 229 745 229 847 q 266 587 229 672 q 344 767 344 680 m 357 173 q 232 359 285 251 q 188 236 188 294 q 208 164 188 195 q 271 128 233 128 q 357 173 314 128 "},"˝":{"x_min":193,"x_max":584.65625,"ha":694,"o":"m 584 926 l 484 803 l 387 803 l 449 926 l 584 926 m 390 926 l 290 803 l 193 803 l 255 926 l 390 926 "},"Ð":{"x_min":44,"x_max":570,"ha":631,"o":"m 570 288 q 302 0 570 0 l 76 0 l 76 418 l 44 418 l 44 550 l 76 550 l 76 926 l 302 926 q 570 635 570 926 l 570 288 m 427 329 l 427 596 q 404 735 427 692 q 288 794 374 794 l 219 794 l 219 550 l 325 550 l 325 418 l 219 418 l 219 132 l 288 132 q 404 191 374 132 q 427 329 427 233 "},"I":{"x_min":71,"x_max":214,"ha":285,"o":"m 214 0 l 71 0 l 71 926 l 214 926 l 214 0 "},"ˉ":{"x_min":205,"x_max":488,"ha":694,"o":"m 488 818 l 205 818 l 205 911 l 488 911 l 488 818 "},"G":{"x_min":61,"x_max":566.5625,"ha":622,"o":"m 566 0 l 492 0 l 466 79 q 292 -14 398 -14 q 101 94 159 -14 q 61 342 61 169 l 61 597 q 66 731 61 694 q 115 853 77 802 q 310 940 178 940 q 502 856 435 940 q 562 652 562 781 l 562 625 l 419 625 q 310 805 419 805 q 217 744 241 805 q 204 624 204 706 l 204 342 q 217 201 204 244 q 316 121 242 121 q 413 201 391 121 q 423 341 423 238 l 305 342 l 305 460 l 566 460 l 566 0 "},"`":{"x_min":208,"x_max":405.234375,"ha":694,"o":"m 405 803 l 308 803 l 208 926 l 342 926 l 405 803 "},"·":{"x_min":0,"x_max":150,"ha":150,"o":"m 150 399 l 0 399 l 0 564 l 150 564 l 150 399 "},"r":{"x_min":59,"x_max":353.453125,"ha":374,"o":"m 353 550 q 292 563 322 563 q 206 517 228 563 q 190 415 190 486 l 190 0 l 59 0 l 59 690 l 190 690 l 190 570 q 251 669 216 639 q 353 699 286 699 l 353 550 "},"¿":{"x_min":37,"x_max":464.78125,"ha":493,"o":"m 314 541 l 181 541 l 181 690 l 314 690 l 314 541 m 464 -54 q 231 -246 407 -246 q 91 -197 146 -246 q 37 -65 37 -148 q 105 105 37 4 q 175 230 162 190 q 192 372 192 279 l 192 408 l 311 408 q 314 329 314 355 q 287 174 314 244 q 216 35 271 134 q 177 -66 177 -33 q 238 -128 177 -128 q 335 -16 297 -128 l 464 -54 "},"ý":{"x_min":14,"x_max":477.890625,"ha":492,"o":"m 376 926 l 276 802 l 179 802 l 243 926 l 376 926 m 477 690 l 327 28 q 245 -182 291 -133 q 34 -246 186 -246 l 34 -114 q 57 -114 41 -114 q 141 -83 108 -114 q 175 -1 175 -52 q 165 59 175 19 l 14 690 l 150 690 l 251 219 l 344 690 l 477 690 "},"x":{"x_min":18,"x_max":493,"ha":511,"o":"m 493 0 l 352 0 l 254 244 l 156 0 l 18 0 l 179 359 l 29 690 l 169 690 l 255 477 l 336 690 l 473 690 l 330 359 l 493 0 "},"è":{"x_min":55,"x_max":484.15625,"ha":540,"o":"m 317 802 l 220 802 l 120 926 l 255 926 l 317 802 m 484 213 q 436 48 484 99 q 271 -14 379 -14 q 99 56 150 -14 q 55 244 55 117 l 55 451 q 61 555 55 522 q 110 647 74 610 q 267 704 168 704 q 429 640 370 704 q 482 438 482 584 l 482 324 l 184 324 l 184 261 q 193 158 184 186 q 272 104 213 104 q 343 148 325 104 q 354 238 354 176 l 484 238 l 484 213 m 353 438 l 353 475 q 267 590 353 590 q 184 475 184 590 l 184 438 l 353 438 "},"º":{"x_min":55,"x_max":323.046875,"ha":376,"o":"m 305 684 q 187 549 305 549 q 69 684 69 549 l 69 797 q 100 903 69 873 q 187 933 131 933 q 273 903 241 933 q 305 797 305 874 l 305 684 m 323 413 l 55 413 l 55 459 l 323 459 l 323 413 m 229 680 l 229 801 q 187 864 229 864 q 147 801 147 864 l 147 680 q 187 618 147 618 q 229 680 229 618 "},"Ø":{"x_min":61,"x_max":567,"ha":628,"o":"m 567 294 q 514 74 567 148 q 315 -14 450 -14 q 193 11 250 -14 l 177 -31 l 104 -31 l 133 52 q 61 294 61 128 l 61 631 q 113 849 61 776 q 313 940 177 940 q 436 915 379 940 l 449 956 l 523 956 l 494 874 q 567 632 567 797 l 567 294 m 387 777 q 312 805 359 805 q 222 755 249 805 q 204 628 204 721 l 204 256 l 387 777 m 424 297 l 424 668 l 240 147 q 313 121 270 121 q 408 179 385 121 q 424 297 424 214 "},"∞":{"x_min":25,"x_max":901,"ha":926,"o":"m 901 470 q 841 315 901 376 q 687 254 781 254 q 465 389 558 254 q 240 254 365 254 q 84 315 144 254 q 25 472 25 376 q 86 628 25 567 q 240 689 147 689 q 459 556 367 689 q 685 689 556 689 q 841 627 781 689 q 901 470 901 566 m 772 472 q 742 546 772 516 q 667 576 712 576 q 525 472 594 576 q 670 367 595 367 q 743 397 715 367 q 772 472 772 427 m 401 470 q 255 576 330 576 q 182 545 211 576 q 153 470 153 515 q 182 396 153 426 q 256 367 212 367 q 401 470 328 367 "},"μ":{"x_min":56,"x_max":638,"ha":694,"o":"m 638 0 l 514 0 l 514 106 q 461 27 487 49 q 341 -17 411 -17 q 181 80 242 -17 l 181 -235 l 56 -235 l 56 665 l 181 665 l 181 296 q 205 158 181 199 q 344 83 250 83 q 482 160 433 83 q 514 306 514 212 l 514 665 l 638 665 l 638 0 "},"÷":{"x_min":46,"x_max":648.78125,"ha":694,"o":"m 426 712 q 402 657 426 680 q 347 635 378 635 q 291 657 315 635 q 268 712 268 680 q 290 769 268 746 q 347 792 313 792 q 402 768 378 792 q 426 712 426 744 m 648 407 l 46 407 l 46 524 l 648 524 l 648 407 m 426 218 q 402 162 426 186 q 347 139 378 139 q 291 162 315 139 q 268 218 268 186 q 290 273 268 251 q 347 296 313 296 q 402 273 378 296 q 426 218 426 250 "},"h":{"x_min":60,"x_max":474,"ha":535,"o":"m 474 0 l 345 0 l 345 505 q 295 586 345 586 q 191 516 242 586 l 191 0 l 60 0 l 60 926 l 191 926 l 191 601 q 361 699 275 699 q 474 539 474 699 l 474 0 "},".":{"x_min":53,"x_max":188,"ha":240,"o":"m 188 0 l 53 0 l 53 149 l 188 149 l 188 0 "},";":{"x_min":53,"x_max":188,"ha":240,"o":"m 188 541 l 53 541 l 53 690 l 188 690 l 188 541 m 188 0 l 107 -192 l 53 -192 l 115 0 l 53 0 l 53 149 l 188 149 l 188 0 "},"f":{"x_min":8,"x_max":349.671875,"ha":340,"o":"m 349 805 q 292 817 310 817 q 234 772 244 817 q 232 690 232 762 l 338 690 l 338 573 l 232 573 l 232 0 l 101 0 l 101 573 l 8 573 l 8 690 l 101 690 q 117 864 101 826 q 263 935 148 935 q 349 926 306 935 l 349 805 "},"“":{"x_min":55,"x_max":393,"ha":449,"o":"m 393 586 l 260 586 l 260 735 l 340 926 l 393 926 l 331 734 l 393 735 l 393 586 m 190 586 l 55 586 l 55 735 l 135 926 l 190 926 l 127 734 l 190 735 l 190 586 "},"A":{"x_min":37,"x_max":598.109375,"ha":626,"o":"m 598 0 l 450 0 l 412 201 l 213 201 l 177 0 l 37 0 l 214 926 l 410 926 l 598 0 m 387 333 l 310 748 l 237 333 l 387 333 "},"6":{"x_min":57,"x_max":520,"ha":569,"o":"m 520 293 q 287 -14 520 -14 q 57 310 57 -14 l 57 641 q 111 859 57 790 q 287 940 173 940 q 448 876 390 940 q 507 708 507 812 l 507 686 l 372 686 q 359 773 372 746 q 285 812 340 812 q 198 741 217 812 q 190 615 190 708 l 190 501 q 330 575 245 575 q 520 293 520 575 m 381 284 q 287 447 381 447 q 190 390 237 447 l 190 262 q 286 114 190 114 q 368 173 347 114 q 381 284 381 208 "},"‘":{"x_min":55,"x_max":190,"ha":246,"o":"m 190 586 l 55 586 l 55 735 l 135 926 l 190 926 l 127 734 l 190 735 l 190 586 "},"π":{"x_min":43,"x_max":799.9375,"ha":842,"o":"m 799 580 l 697 580 l 697 0 l 572 0 l 572 580 l 272 580 l 272 0 l 147 0 l 147 580 l 43 580 l 43 693 l 799 693 l 799 580 "},"O":{"x_min":61,"x_max":567,"ha":628,"o":"m 567 294 q 514 74 567 148 q 314 -14 450 -14 q 113 74 181 -14 q 61 294 61 144 l 61 631 q 113 849 61 774 q 314 940 177 940 q 514 849 446 940 q 567 631 567 778 l 567 294 m 424 297 l 424 628 q 405 755 424 721 q 314 805 379 805 q 219 746 242 805 q 204 628 204 712 l 204 297 q 219 179 204 213 q 314 121 242 121 q 408 179 385 121 q 424 297 424 213 "},"n":{"x_min":60,"x_max":474,"ha":535,"o":"m 474 0 l 345 0 l 345 505 q 295 586 345 586 q 191 516 242 586 l 191 0 l 60 0 l 60 690 l 191 690 l 191 601 q 361 699 275 699 q 474 539 474 699 l 474 0 "},"3":{"x_min":48,"x_max":517.453125,"ha":569,"o":"m 517 270 q 463 70 517 144 q 279 -14 402 -14 q 106 58 168 -14 q 48 240 48 126 l 48 263 l 186 263 q 282 114 186 114 q 378 269 378 114 q 352 381 378 349 q 246 422 324 419 l 246 551 q 342 580 316 552 q 369 681 369 609 q 282 812 369 812 q 218 781 242 812 q 193 711 193 751 q 195 688 193 699 l 60 688 l 60 706 q 122 874 60 809 q 286 940 184 940 q 453 865 396 940 q 502 683 502 798 q 481 563 502 605 q 391 488 456 513 q 496 405 468 465 q 517 270 517 360 "},"9":{"x_min":52,"x_max":515,"ha":569,"o":"m 515 284 q 459 66 515 137 q 282 -14 395 -14 q 121 50 179 -14 q 63 218 63 115 l 63 240 l 197 240 q 210 152 197 179 q 284 114 229 114 q 370 184 350 114 q 380 309 380 218 l 380 425 q 239 351 324 351 q 52 633 52 351 q 282 940 52 940 q 515 615 515 940 l 515 284 m 380 535 l 380 662 q 284 812 380 812 q 203 750 224 812 q 191 639 191 716 q 203 534 191 567 q 282 479 224 479 q 380 535 336 479 "},"l":{"x_min":59,"x_max":190,"ha":250,"o":"m 190 0 l 59 0 l 59 926 l 190 926 l 190 0 "},"¤":{"x_min":59,"x_max":865.953125,"ha":926,"o":"m 865 177 l 797 108 l 661 243 q 464 175 570 175 q 264 241 367 175 l 129 108 l 61 176 l 196 310 q 127 508 127 402 q 195 701 127 606 l 59 837 l 128 907 l 264 770 q 463 840 361 840 q 659 772 563 840 l 793 907 l 863 837 l 728 702 q 797 506 797 606 q 729 312 797 406 l 865 177 m 683 506 q 619 662 683 598 q 463 727 555 727 q 306 662 371 727 q 242 506 242 598 q 305 350 242 414 q 461 286 369 286 q 618 350 553 286 q 683 506 683 414 "},"":{"x_min":9,"x_max":516,"ha":576,"o":"m 516 0 l 387 0 l 387 573 l 233 573 l 233 0 l 102 0 l 102 573 l 9 573 l 9 690 l 102 690 q 120 869 102 831 q 275 935 152 935 q 414 926 346 935 l 414 805 q 300 817 339 817 q 235 776 248 817 q 233 690 233 765 l 516 690 l 516 0 "},"∂":{"x_min":26,"x_max":657,"ha":694,"o":"m 657 351 q 577 95 657 197 q 338 -14 490 -14 q 117 78 209 -14 q 26 300 26 170 q 108 513 26 423 q 313 603 191 603 q 507 512 427 603 q 460 609 481 575 q 210 794 384 736 q 98 818 160 811 l 114 928 q 477 782 347 900 q 657 351 657 619 m 522 302 q 470 442 522 388 q 333 497 419 497 q 205 435 256 497 q 154 295 154 373 q 207 157 154 215 q 340 99 260 99 q 473 161 420 99 q 522 302 522 221 "},"4":{"x_min":20,"x_max":545,"ha":569,"o":"m 545 235 l 441 235 l 441 0 l 306 0 l 306 235 l 20 235 l 20 379 l 295 926 l 441 926 l 441 360 l 545 360 l 545 235 m 306 360 l 306 700 l 145 360 l 306 360 "},"p":{"x_min":59,"x_max":481,"ha":538,"o":"m 481 262 q 462 88 481 147 q 341 -10 431 -10 q 190 68 270 -10 l 190 -236 l 59 -236 l 59 690 l 190 690 l 190 620 q 341 699 267 699 q 462 600 431 699 q 481 427 481 543 l 481 262 m 350 447 q 343 537 350 512 q 278 586 327 586 q 190 551 241 586 l 190 138 q 279 104 239 104 q 343 154 327 104 q 350 242 350 177 l 350 447 "},"‡":{"x_min":46,"x_max":523.78125,"ha":569,"o":"m 523 229 l 350 229 l 350 0 l 221 0 l 221 229 l 46 229 l 46 344 l 221 344 l 221 582 l 46 582 l 46 697 l 221 697 l 221 926 l 350 926 l 350 697 l 523 697 l 523 582 l 350 582 l 350 344 l 523 344 l 523 229 "},"à":{"x_min":52,"x_max":492.28125,"ha":550,"o":"m 332 802 l 235 802 l 135 926 l 268 926 l 332 802 m 492 0 l 358 0 q 347 80 347 30 q 190 -10 265 -10 q 82 48 118 -10 q 52 173 52 96 q 111 324 52 269 q 224 397 152 362 q 348 451 236 404 l 348 487 q 279 586 348 586 q 203 487 209 586 l 65 487 q 297 699 82 699 q 439 646 390 699 q 477 494 477 605 l 477 187 q 492 0 477 55 m 348 166 l 348 355 q 188 181 188 270 q 204 129 188 149 q 253 104 222 104 q 348 166 309 104 "},"Ü":{"x_min":71,"x_max":560,"ha":631,"o":"m 482 1000 l 361 1000 l 361 1124 l 482 1124 l 482 1000 m 269 1000 l 148 1000 l 148 1124 l 269 1124 l 269 1000 m 560 298 q 507 69 560 140 q 315 -14 444 -14 q 123 69 189 -14 q 71 298 71 135 l 71 926 l 214 926 l 214 275 q 315 121 214 121 q 417 275 417 121 l 417 926 l 560 926 l 560 298 "},"ó":{"x_min":55,"x_max":479,"ha":535,"o":"m 407 926 l 306 802 l 209 802 l 273 926 l 407 926 m 479 237 q 423 41 479 97 q 266 -14 367 -14 q 109 41 169 -14 q 55 237 55 91 l 55 451 q 109 647 55 591 q 266 704 164 704 q 422 648 365 704 q 479 451 479 592 l 479 237 m 350 230 l 350 459 q 266 586 350 586 q 184 459 184 586 l 184 230 q 266 104 184 104 q 350 230 350 104 "},"√":{"x_min":0,"x_max":926.390625,"ha":926,"o":"m 926 1036 l 661 1036 l 383 0 l 223 0 l 120 403 l 0 403 l 0 516 l 222 516 l 266 357 q 283 264 272 337 q 298 162 288 230 l 309 162 q 330 276 311 173 q 411 615 354 402 l 552 1149 l 926 1149 l 926 1036 "}}}
